<svg width="24" height="24" fill="none" xmlns="http://www.w3.org/2000/svg"><path d="M3.673 5.063C3.312 5.174 3 5.609 3 6c0 .402.312.827.69.939C3.87 6.993 4.86 7 12 7c7.14 0 8.13-.007 8.31-.061.378-.112.69-.537.69-.939 0-.402-.312-.827-.69-.939-.18-.054-1.166-.061-8.327-.058-6.953.002-8.15.011-8.31.06m2 6C5.312 11.174 5 11.609 5 12c0 .402.312.827.69.939.179.053.961.061 6.31.061 5.349 0 6.131-.008 6.31-.061.378-.112.69-.537.69-.939 0-.402-.312-.827-.69-.939-.3-.089-12.347-.087-12.637.002m2 6C7.312 17.174 7 17.609 7 18c0 .402.312.827.69.939.308.092 8.312.092 8.62 0 .378-.112.69-.537.69-.939 0-.402-.312-.827-.69-.939-.299-.089-8.348-.087-8.637.002" fill-rule="evenodd" fill="#000"/></svg>