<svg xmlns="http://www.w3.org/2000/svg" viewBox="0 0 24 24"><path d="M16.1.148c-1.586.216-3.267 1.432-4.028 2.915a4.842 4.842 0 0 0-.576 2.197c-.021.521-.016.569.062.692.136.215.305.261.862.236.708-.031 1.304-.233 1.961-.663a5.61 5.61 0 0 0 2.383-3.305c.079-.304.094-.46.095-1 .001-.73-.046-.89-.3-1.026-.134-.072-.21-.08-.459-.046m-.46 6.36c-.572.061-1.203.238-2.54.711-.839.297-.883.295-2.056-.096-1.433-.477-2.048-.602-2.949-.603-.829 0-1.401.13-2.075.471-1.073.543-1.956 1.52-2.68 2.966-.391.78-.596 1.396-.718 2.161-.39 2.434.486 5.705 2.381 8.903 1.207 2.035 2.693 3.018 4.266 2.82.434-.054.927-.194 1.971-.557 1.118-.389 1.367-.379 2.71.113 1.072.392 1.36.459 1.97.461.591.001.852-.058 1.38-.313.597-.289 1.101-.706 1.668-1.383.362-.432.942-1.287 1.316-1.942.309-.54 1.091-2.139 1.158-2.366.072-.246-.028-.425-.362-.647-1.475-.985-2.208-1.861-2.508-2.999-.144-.548-.153-1.418-.02-1.948.233-.926.87-1.817 1.855-2.594.38-.3.455-.42.421-.673-.019-.144-.073-.217-.415-.562-1.081-1.092-2.153-1.698-3.343-1.891a7.31 7.31 0 0 0-1.43-.032" fill-rule="evenodd"/></svg>