<svg width="24" height="24" fill="none" xmlns="http://www.w3.org/2000/svg"><path d="M10.66 5.066c-.187.056-.404.264-3.334 3.187C3.922 11.649 4.001 11.56 4.001 12c0 .44-.08.351 3.325 3.747 3.04 3.033 3.14 3.128 3.351 3.19.271.079.375.079.633.002.279-.083.546-.35.629-.629.077-.258.077-.363-.003-.633-.061-.209-.145-.299-2.289-2.447L7.422 13h5.862c6.585 0 6.095.023 6.417-.299a.984.984 0 0 0 0-1.402c-.322-.322.168-.299-6.417-.299H7.422l2.225-2.23c2.144-2.148 2.228-2.238 2.289-2.447.079-.27.08-.375.003-.633a.979.979 0 0 0-.622-.627.952.952 0 0 0-.657.003" fill="#25324B" fill-rule="evenodd"/></svg>