<svg width="24" height="24" fill="none" xmlns="http://www.w3.org/2000/svg"><path d="M13.299 4.795a.998.998 0 0 0-.476 1.355c.081.163.569.669 2.303 2.388l2.2 2.182h-6.301c-4.404 0-6.362.013-6.505.044-.586.125-.926.806-.677 1.356.11.242.257.391.497.505l.2.094 6.4.002 6.4.002-2.243 2.229c-2.505 2.489-2.405 2.367-2.368 2.879.028.399.252.71.611.85.213.083.6.061.798-.046.253-.136 6.425-6.28 6.525-6.495.106-.228.101-.63-.012-.84-.05-.094-1.371-1.444-3.218-3.288-2.414-2.41-3.174-3.147-3.313-3.209-.232-.105-.601-.108-.821-.008" fill-rule="evenodd" fill="#000"/></svg>