<svg width="24" height="24" fill="none" xmlns="http://www.w3.org/2000/svg"><path d="M11.12 2.039A10.107 10.107 0 0 0 4.301 5.62c-.148.176-.428.557-.62.847-3.287 4.946-1.58 11.618 3.679 14.387a9.838 9.838 0 0 0 4.32 1.133 9.957 9.957 0 0 0 4.933-1.116c.493-.253.596-.34.73-.614.091-.187.105-.255.087-.452-.048-.522-.416-.861-.93-.857-.216.001-.303.032-.86.304-1.337.652-2.448.897-3.88.855-1.252-.036-2.296-.294-3.378-.836-2.331-1.168-3.912-3.291-4.388-5.893-.117-.639-.128-2.025-.021-2.636.315-1.802 1.085-3.298 2.331-4.527a8.127 8.127 0 0 1 9.156-1.556 8.094 8.094 0 0 1 4.6 6.413c.05.429.062.844.053 1.717L20.1 13.94l-.109.233c-.216.46-.519.736-.961.873a1.604 1.604 0 0 1-1.395-.229c-.225-.166-.366-.345-.507-.648l-.108-.229-.025-1.32c-.02-1.022-.041-1.388-.093-1.62-.228-1.01-.653-1.792-1.361-2.504-.731-.737-1.549-1.18-2.583-1.399-.459-.098-1.406-.1-1.886-.004-1.786.355-3.233 1.612-3.805 3.307-.195.577-.247.928-.244 1.64.002.572.016.716.107 1.082.248 1.002.686 1.775 1.395 2.465.696.676 1.515 1.106 2.515 1.32.254.055.507.073 1 .071.579-.002.713-.015 1.091-.109.927-.232 1.662-.629 2.302-1.244l.212-.205.127.16c.793.998 1.817 1.478 3 1.407 1.275-.076 2.362-.822 2.904-1.993.279-.603.295-.706.314-2.114.011-.783 0-1.449-.029-1.76a9.992 9.992 0 0 0-5.539-8.078 9.73 9.73 0 0 0-2.962-.926c-.589-.09-1.806-.13-2.34-.077M12.839 9c.873.25 1.573.842 1.966 1.66.233.487.293.76.293 1.34 0 .596-.061.863-.316 1.38-.511 1.037-1.479 1.675-2.624 1.73a3.094 3.094 0 0 1-3.265-3.31c.085-1.404 1.098-2.56 2.507-2.862.364-.078 1.055-.049 1.439.062" fill="#25324B" fill-rule="evenodd"/></svg>