<svg width="24" height="24" fill="none" xmlns="http://www.w3.org/2000/svg"><path d="M14.52 1.784c-1.057.128-1.921.471-2.74 1.088-.308.232-6.968 6.871-7.37 7.348a7.503 7.503 0 0 0-1.695 3.76A9.431 9.431 0 0 0 2.663 15c0 .717.051 1.165.201 1.77.727 2.922 3.12 5.08 6.116 5.515.463.067 1.577.067 2.04 0a7.424 7.424 0 0 0 3.746-1.684c.206-.173 1.889-1.832 3.741-3.688 3.27-3.277 3.368-3.379 3.43-3.59.079-.271.079-.375.002-.633a1.004 1.004 0 0 0-.629-.629c-.258-.077-.362-.077-.633.003-.211.061-.316.162-3.717 3.553-1.925 1.92-3.608 3.572-3.74 3.67-.516.386-1.251.745-1.831.896a5.36 5.36 0 0 1-4.689-.964A5.326 5.326 0 0 1 4.641 15a5.32 5.32 0 0 1 1.072-3.22c.247-.332 7.09-7.186 7.387-7.398a3.389 3.389 0 0 1 1.048-.511c.447-.129 1.257-.129 1.704 0a3.289 3.289 0 0 1 2.277 2.277c.129.447.129 1.257 0 1.704a3.389 3.389 0 0 1-.511 1.048c-.094.132-1.717 1.781-3.605 3.665-3.136 3.128-3.45 3.431-3.63 3.49a1.09 1.09 0 0 1-1.166-.272 1.09 1.09 0 0 1-.272-1.166c.06-.18.365-.498 3.497-3.637 3.332-3.341 3.433-3.446 3.494-3.657.08-.271.08-.375.003-.633a1.004 1.004 0 0 0-.629-.629c-.258-.077-.362-.077-.633.002-.211.062-.31.156-3.662 3.51-2.339 2.341-3.501 3.53-3.618 3.707-.19.284-.354.658-.44 1-.072.288-.072 1.152 0 1.44a3.202 3.202 0 0 0 2.323 2.323c.288.072 1.152.072 1.44 0 .343-.086.716-.25 1-.44.174-.116 1.345-1.255 3.554-3.458 1.812-1.807 3.429-3.437 3.594-3.624.671-.759 1.05-1.516 1.275-2.542.097-.444.097-1.514 0-1.958-.48-2.189-2.005-3.714-4.16-4.159-.31-.064-1.19-.111-1.463-.078" fill-rule="evenodd" fill="#000"/></svg>