<svg width="24" height="24" fill="none" xmlns="http://www.w3.org/2000/svg"><path d="M11.5 1.081c-1.922.216-3.752 1.172-4.931 2.577-.69.823-1.131 1.646-1.384 2.585-.149.551-.183.809-.224 1.677-.064 1.359-.194 1.794-.888 2.968-.522.884-.731 1.434-.851 2.245-.143.961-.015 1.778.404 2.594.751 1.459 2.435 2.256 5.354 2.534 1.654.157 5.197.157 6.84-.001 2.311-.221 3.757-.732 4.689-1.655.705-.698 1.078-1.574 1.12-2.631.043-1.07-.194-1.911-.848-3.011-.734-1.233-.873-1.698-.942-3.143-.021-.44-.065-.931-.097-1.091-.193-.964-.568-1.816-1.171-2.662-.3-.421-1.057-1.182-1.505-1.515A7.737 7.737 0 0 0 13.8 1.154c-.525-.093-1.769-.132-2.3-.073m2.04 1.561c1.933.322 3.673 1.656 4.42 3.388.248.574.323.934.362 1.73.055 1.104.12 1.556.321 2.211.163.531.32.863.776 1.643.463.789.603 1.132.686 1.677.139.911-.077 1.688-.622 2.232-.795.795-2.3 1.178-5.203 1.321-1.048.052-3.796.026-4.68-.043-3.18-.251-4.53-.891-4.863-2.304-.051-.215-.061-.397-.044-.817.032-.796.148-1.137.7-2.072.51-.862.699-1.293.866-1.964.137-.551.178-.883.22-1.764.043-.937.135-1.351.44-1.99.271-.567.565-.998.979-1.439a6.162 6.162 0 0 1 4.142-1.904 8.141 8.141 0 0 1 1.5.095M9.739 19.916a.745.745 0 0 0-.534.906c.129.512 1.254 1.33 2.181 1.586.47.129 1.456.129 1.934 0 .934-.253 2.065-1.07 2.195-1.586a.722.722 0 0 0-.711-.915c-.277 0-.351.038-.709.369-.493.457-1.012.702-1.582.748-.684.055-1.446-.267-1.993-.843a1.245 1.245 0 0 0-.24-.2.949.949 0 0 0-.541-.065" fill="#25324B" fill-rule="evenodd"/></svg>