<svg xmlns="http://www.w3.org/2000/svg" viewBox="0 0 30 30"><path d="m3 4.044-1.575.031-.29.142c-.627.308-1.021.887-1.09 1.599-.021.225-.04 4.486-.042 9.47C0 24.327 0 24.347.103 24.623c.21.56.745 1.093 1.264 1.258.235.074 1.233.083 11.183.103 6.009.012 12.073.003 13.475-.019l2.55-.04.281-.138c.374-.184.759-.578.957-.981l.162-.329.013-7.601c.007-4.181-.005-8.467-.025-9.526l-.038-1.925-.138-.281a2.26 2.26 0 0 0-.961-.943l-.306-.146-11.972-.021C9.963 4.022 3.866 4.027 3 4.044m25.441 1.075c.103.066.26.201.349.302l.16.182v18.789l-.136.162a2.226 2.226 0 0 1-.332.303l-.197.143H1.715l-.197-.143a2.226 2.226 0 0 1-.332-.303l-.136-.162V5.603l.16-.182c.088-.1.24-.235.338-.299l.177-.116 13.263-.003L28.252 5l.189.119M5.056 13.003c-.459.082-.893.324-1.282.717-.395.399-.593.758-.702 1.271-.094.448-.09.623.028 1.084.473 1.847 2.712 2.527 4.098 1.244.512-.474.777-1.013.835-1.694.089-1.057-.625-2.119-1.691-2.515-.336-.125-.912-.173-1.286-.107m4.553.053c-.318.053-.443.114-.478.231-.13.435-1.031 4.311-1.02 4.386.031.215 1.06.392 1.614.277 1.309-.271 2.095-1.716 1.545-2.84-.225-.459-.739-.691-1.265-.571a1.232 1.232 0 0 1-.241.042c-.006-.007.067-.337.162-.734.096-.397.163-.75.15-.784-.026-.07-.083-.071-.467-.007m3.204.068a.678.678 0 0 0-.363.552c0 .447.607.615.939.26.235-.25.257-.624.044-.757a.734.734 0 0 0-.62-.055m10.491.014c-.39.198-.49.621-.208.873.085.076.212.139.281.139.354 0 .672-.304.673-.641 0-.228-.07-.339-.256-.404-.215-.075-.29-.07-.49.033m-8.796.537a3.126 3.126 0 0 0-.381.083c-.022.026-.51 2.061-.604 2.517-.045.22-.084.557-.087.75-.007.455.085.633.413.8.214.108.311.124.712.121.493-.004.867-.085.859-.185-.003-.034-.008-.187-.013-.34l-.007-.279-.321.034c-.377.041-.659-.033-.707-.184-.04-.128.003-.423.161-1.103l.125-.536.53-.014.531-.014.087-.347c.048-.191.077-.366.063-.388-.014-.022-.249-.04-.522-.04a5.39 5.39 0 0 1-.496-.012c.001-.007.054-.221.12-.475l.119-.463-.108.005a5.692 5.692 0 0 0-.474.07m-8.879.426c.003.184.02.224.097.224.062 0 .106-.052.134-.16.023-.088.063-.173.09-.19.083-.051.257.074.23.166-.093.314-.09.346.036.377.167.042.434.356.434.511 0 .159-.122.4-.223.438-.064.025-.057.059.048.213.151.223.155.315.025.571-.127.248-.32.349-.668.349H5.56l-.044.188c-.037.153-.067.187-.168.187-.11 0-.123-.021-.123-.2 0-.215-.062-.36-.125-.292a.953.953 0 0 0-.098.23c-.033.103-.086.187-.118.186-.138-.002-.187-.088-.173-.3.013-.21.008-.22-.161-.271-.249-.075-.294-.115-.264-.23.032-.121.177-.209.28-.169.1.038.104.028.286-.677l.159-.621-.164-.133c-.239-.195-.178-.298.176-.298.269 0 .277-.004.35-.179.053-.125.102-.174.164-.161.068.013.089.068.092.241m11.769.442c-.923.197-1.55 1.097-1.486 2.132.03.472.14.729.419.973.291.256.488.319.984.316.242-.001.54-.03.662-.065l.223-.062v-.308c0-.17-.023-.332-.05-.359-.033-.033-.149-.034-.339-.002-.721.119-1.032-.193-.938-.943.044-.354.26-.689.534-.829.178-.09.27-.104.565-.083.194.014.388.04.43.057.06.025.113-.053.232-.337l.154-.371-.206-.062c-.252-.076-.941-.109-1.184-.057m2.802.001c-.677.149-1.291.885-1.404 1.683-.09.639.027 1.139.337 1.433.228.216.496.303.946.307.345.003.446-.017.69-.137.576-.281.959-.815 1.114-1.547.155-.735-.08-1.374-.602-1.642-.214-.11-.789-.162-1.081-.097m5.1-.012c-.267.048-.85.179-.85.191 0 .008-.169.716-.375 1.574-.206.858-.375 1.57-.375 1.581 0 .012.209.022.466.022h.465l.265-1.138c.146-.625.297-1.213.335-1.306l.069-.168.304.022c.186.013.323.05.353.093.082.121.011.737-.182 1.573-.102.44-.188.821-.193.849-.004.029.182.056.45.064l.458.015.206-.861c.293-1.225.332-1.49.256-1.761-.151-.539-.396-.705-1.102-.747a3.977 3.977 0 0 0-.55-.003m-12.935.08c-.057.087-.805 3.205-.78 3.251.012.02.219.037.462.037.44 0 .441 0 .47-.138.016-.075.188-.807.382-1.627.195-.819.341-1.511.325-1.537-.045-.073-.81-.06-.859.014m10.504-.024c-.031.02-.114.285-.185.587l-.382 1.617a60.609 60.609 0 0 0-.252 1.089c0 .013.208.016.461.008l.462-.014.36-1.5c.198-.825.374-1.573.391-1.662l.031-.163-.415.001c-.228 0-.44.017-.471.037m-17.361.2c-.026.048-.062.16-.081.249-.031.146-.021.168.106.216.187.071.453.017.518-.105.074-.137-.019-.29-.228-.377-.219-.092-.26-.089-.315.017m15.244.575c.203.137.262.32.226.704-.051.545-.374 1.05-.712 1.113-.43.081-.593-.149-.555-.78.032-.533.275-.949.639-1.094.183-.073.218-.068.402.057m-10.403.036c.135.135.17.307.133.655-.038.369-.123.576-.337.82a.871.871 0 0 1-.718.326c-.209 0-.227-.01-.227-.126 0-.12.2-1.099.303-1.483.055-.208.19-.281.535-.287.148-.003.242.026.311.095m-5.113.405-.074.294.181.051c.268.074.432.062.559-.041.226-.182.034-.418-.453-.558-.136-.039-.141-.034-.213.254" fill-rule="evenodd"/></svg>