<svg width="24" height="24" fill="none" xmlns="http://www.w3.org/2000/svg"><path d="M6.673 4.063c-.261.08-.533.358-.612.627C6.007 4.87 6 5.755 6 12c0 7.991-.024 7.369.303 7.697.318.318.11.303 4.234.303 2.41 0 3.765-.015 4.003-.044a4.454 4.454 0 0 0 2.621-1.276c.581-.575.954-1.225 1.188-2.065.101-.364.11-.452.11-1.115s-.009-.751-.11-1.115a4.628 4.628 0 0 0-1.068-1.955 5.677 5.677 0 0 0-.943-.772c-.063-.037-.039-.082.217-.42a4.652 4.652 0 0 0 .891-2.095c.071-.458.02-1.33-.104-1.779-.501-1.814-1.968-3.095-3.802-3.32-.236-.029-1.445-.043-3.52-.041-2.632.002-3.191.012-3.347.06m6.943 2.016c.418.107.75.291 1.073.596.561.528.798 1.07.798 1.825 0 .755-.237 1.297-.798 1.825a2.332 2.332 0 0 1-1.073.596c-.292.075-.451.079-2.962.079H8V6h2.654c2.511 0 2.67.004 2.962.079m1 7c.418.107.75.291 1.073.596.561.528.798 1.07.798 1.825 0 .755-.237 1.297-.798 1.825a2.332 2.332 0 0 1-1.073.596c-.295.075-.453.079-3.462.079H8v-5h3.154c3.009 0 3.167.004 3.462.079" fill-rule="evenodd" fill="#000"/></svg>