<svg width="24" height="24" fill="none" xmlns="http://www.w3.org/2000/svg"><path d="M8.506 3.042c-.646.108-1.099.35-1.606.858-.519.519-.749.956-.859 1.633C6.015 5.691 6 8.348 6 12.944c0 7.825-.014 7.376.232 7.686.232.293.711.439 1.054.32.096-.033 1.196-.673 2.444-1.423L12 18.164l2.27 1.364c1.248.75 2.349 1.388 2.446 1.418a.942.942 0 0 0 .981-.249c.328-.328.303.301.303-7.754 0-4.595-.015-7.252-.041-7.41-.11-.677-.34-1.114-.859-1.633-.519-.519-.956-.749-1.633-.859-.297-.049-6.672-.047-6.961.001m6.983 2.089c.213.125.375.318.454.539.044.123.054 1.276.055 6.358L16 18.236l-1.796-1.078c-1.951-1.171-2.036-1.21-2.408-1.125-.146.034-.711.352-2 1.126l-1.797 1.078.011-6.268.01-6.269.111-.189c.125-.212.317-.375.539-.454.122-.044.753-.053 3.39-.046l3.24.009.189.111" fill-rule="evenodd" fill="#000"/></svg>