<svg width="24" height="24" fill="none" xmlns="http://www.w3.org/2000/svg"><path d="M12.7 2.056c-.088.028-1.983.964-4.211 2.079C4.059 6.351 4.182 6.28 4.06 6.692 4.008 6.869 4 7.731 4 13.447V20h-.553c-.696 0-.893.052-1.144.303-.183.183-.303.46-.303.697 0 .402.312.827.69.939.18.054 1.275.061 9.31.061s9.13-.007 9.31-.061c.378-.112.69-.537.69-.939 0-.237-.12-.514-.303-.697-.251-.251-.448-.303-1.143-.303h-.552l-.011-4.63-.011-4.63-.094-.176a1.306 1.306 0 0 0-.216-.288c-.068-.062-1.371-.943-2.895-1.96l-2.772-1.847-.012-1.864-.011-1.865-.099-.194a.992.992 0 0 0-1.181-.49M12 12.32V20H6V7.62l2.97-1.488a251.178 251.178 0 0 1 3-1.49c.017-.001.03 3.454.03 7.678M8.673 8.063c-.261.08-.533.358-.612.627-.077.258-.077.409 0 .635.308.903 1.609.888 1.88-.022.074-.249.074-.358-.002-.613-.114-.386-.547-.697-.956-.687a1.449 1.449 0 0 0-.31.06m7.437 2.211L18 11.533V20h-4V8.871l.11.071 2 1.332m-7.437.789c-.261.08-.533.358-.612.627-.077.258-.077.409 0 .635.308.903 1.609.888 1.88-.022.074-.249.074-.358-.002-.613a1.004 1.004 0 0 0-.629-.629.936.936 0 0 0-.637.002m0 3c-.261.08-.533.358-.612.627-.077.258-.077.409 0 .635.308.904 1.608.889 1.88-.022.074-.249.074-.358-.002-.613a1.004 1.004 0 0 0-.629-.629.936.936 0 0 0-.637.002m0 3c-.261.08-.533.358-.612.627-.077.258-.077.409 0 .635.308.903 1.609.888 1.88-.022.074-.249.074-.358-.002-.613a1.004 1.004 0 0 0-.629-.629.936.936 0 0 0-.637.002" fill-rule="evenodd" fill="#000"/></svg>