<svg width="24" height="24" fill="none" xmlns="http://www.w3.org/2000/svg"><path d="M7.673 2.063a.93.93 0 0 0-.369.24C7.052 2.554 7 2.75 7 3.447V4h-.61c-1.243.001-1.789.198-2.49.9-.519.519-.749.956-.859 1.633-.055.338-.055 12.596 0 12.934.11.677.34 1.114.859 1.633.519.519.956.749 1.633.859.338.055 12.596.055 12.934 0 .677-.11 1.114-.34 1.633-.859.519-.519.749-.956.859-1.633.055-.338.055-12.596 0-12.934-.11-.677-.34-1.114-.859-1.633-.701-.702-1.247-.899-2.49-.9H17v-.553c0-.696-.052-.893-.303-1.144A1.052 1.052 0 0 0 16 2c-.237 0-.514.12-.697.303-.251.251-.303.448-.303 1.144V4H9v-.553c0-.696-.052-.893-.303-1.144-.279-.279-.63-.361-1.024-.24M7 6.553c0 .696.052.893.303 1.144.183.183.46.303.697.303.237 0 .514-.12.697-.303.251-.251.303-.448.303-1.144V6h6v.553c0 .696.052.893.303 1.144.183.183.46.303.697.303.237 0 .514-.12.697-.303.251-.252.303-.447.303-1.148v-.556l.65.014c.627.013.657.017.839.124.103.061.236.173.294.25.208.273.213.319.215 2.029L19 10H4.997l.011-1.65.012-1.65.111-.189c.125-.213.318-.375.539-.454.098-.035.353-.054.74-.055L7 6v.553m11.991 9.097-.011 3.65-.111.189a1.038 1.038 0 0 1-.539.454c-.222.079-12.438.079-12.66 0a1.038 1.038 0 0 1-.539-.454L5.02 19.3l-.011-3.65L4.998 12h14.004l-.011 3.65M7.673 14.063c-.261.08-.533.358-.612.627-.088.297-.088 2.323 0 2.62.083.279.35.546.629.629.297.088 2.323.088 2.62 0 .279-.083.546-.35.629-.629.088-.297.088-2.323 0-2.62a1.004 1.004 0 0 0-.629-.629c-.287-.086-2.358-.084-2.637.002" fill-rule="evenodd" fill="#000"/></svg>