<svg width="24" height="24" fill="none" xmlns="http://www.w3.org/2000/svg"><path d="M4.617 7.577c-.183.079-.41.294-.508.479-.121.229-.121.66-.001.884.129.239 7.311 7.4 7.501 7.478.082.034.244.062.36.062.474-.001.204.24 4.184-3.733 2.157-2.154 3.688-3.713 3.739-3.807.12-.224.12-.655-.001-.884-.1-.19-.328-.402-.517-.481-.175-.073-.581-.07-.765.007-.105.043-1.115 1.026-3.379 3.289L12 14.099l-3.23-3.228C6.506 8.608 5.496 7.625 5.391 7.582c-.181-.076-.606-.078-.774-.005" fill-rule="evenodd" fill="#000"/></svg>