<svg width="24" height="24" fill="none" xmlns="http://www.w3.org/2000/svg"><path d="M8.673 5.063c-.261.08-.533.358-.612.627-.077.258-.077.362.003.633.061.21.151.305 2.789 2.947L13.578 12l-2.725 2.73c-2.638 2.642-2.728 2.737-2.789 2.947-.08.271-.08.375-.003.633.083.279.35.546.629.629.258.077.362.077.633-.002.211-.062.306-.153 3.384-3.23 3.077-3.078 3.168-3.173 3.23-3.384.079-.272.079-.374 0-.646-.062-.211-.153-.306-3.23-3.384-3.078-3.077-3.173-3.168-3.384-3.23-.262-.076-.403-.076-.65 0" fill-rule="evenodd" fill="#000"/></svg>