<svg width="24" height="24" fill="none" xmlns="http://www.w3.org/2000/svg"><path d="M14.66 5.066c-.187.056-.402.262-3.367 3.227-3.077 3.078-3.168 3.173-3.23 3.384-.035.12-.063.265-.063.323 0 .058.028.203.063.323.062.211.153.306 3.23 3.384 3.078 3.077 3.173 3.168 3.384 3.23.271.079.375.079.633.002.279-.083.546-.35.629-.629.077-.258.077-.362-.003-.633-.061-.21-.151-.305-2.789-2.947L10.422 12l2.725-2.73c2.638-2.642 2.728-2.737 2.789-2.947.08-.271.08-.375.003-.633a1.004 1.004 0 0 0-.629-.629c-.25-.075-.39-.073-.65.005" fill-rule="evenodd" fill="#000"/></svg>