<svg width="24" height="24" fill="none" xmlns="http://www.w3.org/2000/svg"><path d="M11.66 8.066c-.187.056-.402.262-3.367 3.227-3.077 3.078-3.168 3.173-3.23 3.384-.079.271-.079.375-.002.633.083.279.35.546.629.629.258.077.362.077.633-.003.21-.061.305-.151 2.947-2.789L12 10.422l2.73 2.725c2.642 2.638 2.737 2.728 2.947 2.789.271.08.375.08.633.003.279-.083.546-.35.629-.629.077-.258.077-.362-.002-.633-.062-.211-.153-.306-3.23-3.384-3.078-3.077-3.173-3.168-3.384-3.23a.974.974 0 0 0-.663.003" fill-rule="evenodd" fill="#000"/></svg>