<svg width="24" height="24" fill="none" xmlns="http://www.w3.org/2000/svg"><path d="M11.12 2.039c-1.804.181-3.413.768-4.84 1.767-3.542 2.48-5.102 6.953-3.858 11.059a9.762 9.762 0 0 0 2.517 4.196 9.792 9.792 0 0 0 3.333 2.217c3.362 1.332 7.041.802 9.928-1.433.437-.338 1.307-1.208 1.645-1.645C21.255 16.379 22 14.234 22 12c0-4.568-3.158-8.613-7.57-9.697-.984-.241-2.402-.355-3.31-.264m1.62 2.002A7.98 7.98 0 0 1 19.182 8.5a7.965 7.965 0 0 1-1.417 9.03A7.977 7.977 0 0 1 12 19.999c-3.765 0-7.052-2.668-7.823-6.351a7.995 7.995 0 0 1 4.324-8.831 7.919 7.919 0 0 1 4.239-.776m1.92 5.023c-.183.057-.349.212-1.929 1.788l-1.73 1.725-.73-.724c-.667-.661-.75-.73-.948-.789-.271-.08-.374-.08-.639-.001-.565.167-.835.837-.564 1.397.051.104.487.569 1.21 1.287 1.061 1.055 1.143 1.128 1.347 1.189.272.08.373.08.646 0 .208-.061.298-.144 2.251-2.09 1.119-1.114 2.104-2.111 2.188-2.216.631-.785-.133-1.871-1.102-1.566" fill="#25324B" fill-rule="evenodd"/></svg>