<svg width="24" height="24" fill="none" xmlns="http://www.w3.org/2000/svg"><path d="M11.1 2.041c-2.094.212-3.908.969-5.528 2.307C4.093 5.57 2.907 7.399 2.386 9.26c-.266.949-.363 1.684-.363 2.74 0 1.056.097 1.791.363 2.74.521 1.861 1.707 3.69 3.186 4.912 1.48 1.223 3.077 1.941 4.968 2.235.744.115 2.083.124 2.8.019 3.557-.524 6.437-2.716 7.845-5.969.549-1.267.791-2.474.791-3.937 0-.888-.054-1.429-.217-2.162-.654-2.948-2.645-5.484-5.335-6.795a9.836 9.836 0 0 0-3.184-.963c-.465-.061-1.701-.083-2.14-.039m1.732 2.001c1.186.13 2.412.55 3.405 1.17a8.48 8.48 0 0 1 2.419 2.348c1.875 2.811 1.773 6.51-.254 9.239-.471.635-1.287 1.407-1.962 1.857a8.043 8.043 0 0 1-8.88 0c-.675-.45-1.491-1.222-1.962-1.857-1.975-2.658-2.128-6.189-.393-9.028.387-.632 1.083-1.424 1.714-1.95 1.137-.947 2.7-1.608 4.201-1.777a10.09 10.09 0 0 1 1.712-.002m-1.159 2.021a.94.94 0 0 0-.37.24c-.315.315-.307.225-.294 3.281.01 2.533.015 2.685.087 2.836.05.104.649.734 1.72 1.806 1.573 1.576 1.653 1.65 1.861 1.71.271.08.375.08.633.003.279-.083.546-.35.629-.629.077-.259.077-.363-.003-.633-.061-.206-.137-.29-1.5-1.659L13 11.577V9.236c0-2.674.005-2.625-.303-2.933-.279-.279-.63-.361-1.024-.24" fill-rule="evenodd" fill="#000"/></svg>