<svg width="24" height="24" fill="none" xmlns="http://www.w3.org/2000/svg"><path d="M5.613 4.872a1.183 1.183 0 0 0-.728 1.556c.08.22.224.372 2.749 2.902L10.299 12l-2.665 2.67c-2.955 2.962-2.816 2.797-2.812 3.334a1.179 1.179 0 0 0 1.198 1.17c.525-.003.393.108 3.33-2.826L12 13.701l2.65 2.647c2.936 2.934 2.804 2.822 3.331 2.827a1.171 1.171 0 0 0 1.193-1.195c-.003-.525.108-.393-2.826-3.33L13.701 12l2.647-2.65c2.954-2.957 2.851-2.835 2.851-3.37 0-.657-.454-1.131-1.121-1.171-.569-.034-.392-.182-3.408 2.827L12 10.299 9.35 7.651C7.163 5.466 6.665 4.988 6.502 4.916a1.279 1.279 0 0 0-.889-.044" fill="#25324B" fill-rule="evenodd"/></svg>