<svg width="24" height="24" fill="none" xmlns="http://www.w3.org/2000/svg"><path d="M13.667 3.059a1.04 1.04 0 0 0-.536.467C13.03 3.728 9 19.815 9 20.016c0 .332.233.707.534.857.502.25 1.1.071 1.335-.399C10.963 20.285 15 4.192 15 4.006c0-.189-.105-.475-.232-.636-.235-.296-.755-.443-1.101-.311M5.66 7.066c-.186.056-.354.215-2.367 2.227-2.089 2.09-2.169 2.175-2.23 2.384-.079.272-.079.374 0 .646.061.209.141.294 2.23 2.384 2.09 2.089 2.175 2.169 2.384 2.23.271.079.375.079.633.002.279-.083.546-.35.629-.629.077-.259.077-.363-.003-.633-.061-.207-.139-.293-1.788-1.947L3.423 12l1.725-1.73c1.649-1.654 1.727-1.74 1.788-1.947.08-.27.08-.374.003-.633-.114-.386-.547-.697-.956-.687-.068.001-.213.03-.323.063m12.013-.003c-.261.08-.533.358-.612.627-.077.259-.077.363.003.633.061.207.139.293 1.788 1.947L20.577 12l-1.725 1.73c-1.649 1.654-1.727 1.74-1.788 1.947-.08.27-.08.374-.003.633.083.279.35.546.629.629.258.077.362.077.633-.002.209-.061.294-.141 2.384-2.23 2.089-2.09 2.169-2.175 2.23-2.384.035-.12.063-.265.063-.323 0-.058-.028-.203-.063-.323-.061-.209-.141-.294-2.23-2.384-2.09-2.089-2.175-2.169-2.384-2.23-.262-.076-.403-.076-.65 0" fill-rule="evenodd" fill="#000"/></svg>