<svg width="24" height="24" fill="none" xmlns="http://www.w3.org/2000/svg"><path d="M7.7 2.049c-.207.075-.415.225-.694.503-1.213 1.206-1.338 3.193-.288 4.579.22.289.642.662.876.773a.99.99 0 0 0 1.072-.175c.294-.286.39-.637.277-1.023-.056-.195-.11-.269-.386-.536-.452-.437-.537-.622-.537-1.17 0-.548.085-.733.537-1.17.276-.267.33-.341.386-.536.112-.385.017-.737-.276-1.022-.241-.234-.665-.331-.967-.223m4 0c-.207.075-.415.225-.694.503-1.213 1.206-1.338 3.193-.288 4.579.22.289.642.662.876.773a.99.99 0 0 0 1.072-.175c.294-.286.39-.637.277-1.023-.056-.195-.11-.269-.386-.536-.452-.437-.537-.622-.537-1.17 0-.548.085-.733.537-1.17.276-.267.33-.341.386-.536.112-.385.017-.737-.276-1.022-.241-.234-.665-.331-.967-.223M2.673 9.063a.93.93 0 0 0-.369.24C1.992 9.614 2 9.53 2 12.517c.001 2.609.025 3.26.143 3.831.583 2.825 2.686 4.926 5.514 5.51.562.116 1.311.152 2.722.131 1.444-.022 1.717-.05 2.46-.25a7.043 7.043 0 0 0 4.362-3.509l.131-.254.624-.001c.542-.002.675-.016 1.012-.106 1.722-.46 2.897-1.886 3.014-3.656.088-1.344-.615-2.768-1.732-3.504a3.96 3.96 0 0 0-1.96-.691C18.108 10 18 9.972 18 9.942c0-.182-.139-.474-.303-.639-.328-.328.297-.303-7.714-.3-6.082.002-7.15.011-7.31.06M16 11.68c0 .374-.007.68-.016.68-.009 0-.185-.044-.39-.099-1.139-.301-2.588-.339-3.768-.098-.89.181-1.569.463-2.283.948-.546.371-.994.586-1.475.708-1.226.31-2.8.219-3.778-.22l-.29-.13V11h12v.68m2.475.378C19.365 12.295 20 13.103 20 14c0 1.053-.922 2-1.947 2-.135 0-.141-.005-.114-.11.016-.06.038-.96.049-2l.02-1.89h.126c.069.001.223.027.341.058m-4.015 2.003c.508.076.9.184 1.264.346l.286.128-.022.583c-.054 1.378-.517 2.456-1.466 3.404-.734.734-1.53 1.164-2.562 1.385-.297.064-.545.073-1.96.073s-1.663-.009-1.96-.073c-1.032-.221-1.828-.651-2.562-1.385-.585-.585-.953-1.17-1.21-1.922-.096-.283-.244-.917-.219-.942a2.79 2.79 0 0 1 .371.085c1.402.375 3.218.326 4.566-.123a5.407 5.407 0 0 0 1.471-.731c.724-.492 1.242-.701 2.047-.826.485-.075 1.463-.077 1.956-.002" fill-rule="evenodd" fill="#000"/></svg>