<svg width="24" height="24" fill="none" xmlns="http://www.w3.org/2000/svg"><path d="M2.67 5.057a1.038 1.038 0 0 0-.539.454L2.02 5.7l-.011 4.197c-.009 3.615-.002 4.226.049 4.402.052.18.052.227.001.399-.074.246-.074.357.002.612.083.279.35.546.629.629.18.054 1.175.061 8.367.061 5.264 0 8.251-.015 8.41-.041.677-.11 1.114-.34 1.633-.859.739-.739.97-1.444.87-2.656-.328-3.967-3.557-6.693-8.65-7.302-1.024-.123-1.864-.142-6.16-.14-3.521.001-4.368.012-4.49.055M7 8.5V10H4V7h3v1.5m4.99.01.011 1.49H9V6.999l1.49.011 1.49.01.01 1.49m3.129-.986c.926.269 1.794.661 2.476 1.117.375.251.988.805 1.29 1.165l.162.194H14V7.249l.35.076c.193.042.539.131.769.199m4.828 4.706c.018.127.033.419.033.65 0 .387-.009.435-.111.609a1.038 1.038 0 0 1-.539.454c-.123.044-1.504.054-7.74.055L4 14v-2h15.914l.033.23M2.673 18.063C2.312 18.174 2 18.609 2 19c0 .402.312.827.69.939.18.054 1.275.061 9.31.061s9.13-.007 9.31-.061c.378-.112.69-.537.69-.939 0-.402-.312-.827-.69-.939-.181-.054-1.271-.061-9.327-.058-7.823.002-9.15.011-9.31.06" fill-rule="evenodd" fill="#000"/></svg>