<svg width="24" height="24" fill="none" xmlns="http://www.w3.org/2000/svg"><path d="M6.66 2.066c-.186.056-.354.215-2.367 2.227-2.089 2.09-2.169 2.175-2.23 2.384-.079.273-.079.374.001.646.061.209.145.299 2.289 2.447L6.578 12l-2.203 2.21c-1.45 1.455-2.228 2.265-2.279 2.37-.071.15-.077.29-.087 2.335-.013 2.499-.016 2.471.294 2.782.311.31.283.307 2.782.294 2.045-.01 2.185-.016 2.335-.087.105-.051.915-.829 2.37-2.279L12 17.422l2.23 2.225c2.148 2.144 2.238 2.228 2.447 2.289.272.08.373.08.646.001.209-.061.294-.141 2.384-2.23 2.089-2.09 2.169-2.175 2.23-2.384.079-.273.079-.374-.001-.646-.061-.209-.145-.299-2.289-2.447L17.422 12l1.742-1.75c.958-.963 1.796-1.822 1.862-1.91a4.097 4.097 0 0 0 .714-1.564 4.7 4.7 0 0 0 0-1.552 3.842 3.842 0 0 0-2.964-2.964 4.7 4.7 0 0 0-1.552 0 4.14 4.14 0 0 0-1.564.712c-.088.067-.947.906-1.91 1.864L12 6.578 9.77 4.353C7.622 2.209 7.532 2.125 7.323 2.064a.963.963 0 0 0-.663.002m11.678 2.137c.366.068.653.224.944.515.437.437.619.981.524 1.562-.08.478-.204.68-.782 1.271l-.521.532-1.293-1.292L15.918 5.5l.531-.522c.559-.55.74-.669 1.151-.762.282-.063.45-.066.738-.013M8.8 6.22 10.58 8 9.29 9.29 8 10.579l-.538-.537-.538-.537.475-.489c.409-.42.485-.518.538-.7.079-.263.079-.368.002-.626a1.004 1.004 0 0 0-.629-.629c-.258-.077-.363-.077-.626.002-.182.053-.28.129-.7.538l-.489.475-.537-.538L4.421 7 5.7 5.72A60.031 60.031 0 0 1 7 4.44c.011 0 .821.801 1.8 1.78m3.03 8.53L6.58 20H4v-2.58l5.25-5.25 5.25-5.25 1.29 1.29 1.29 1.29-5.25 5.25m5.97.47L19.58 17l-1.29 1.29L17 19.579l-.538-.537-.538-.537.475-.489c.409-.42.485-.518.538-.7.079-.263.079-.368.002-.626a1.004 1.004 0 0 0-.629-.629c-.258-.077-.363-.077-.626.002-.182.053-.28.129-.7.538l-.489.475-.537-.538-.537-.538 1.279-1.28a60.031 60.031 0 0 1 1.3-1.28c.011 0 .821.801 1.8 1.78" fill-rule="evenodd" fill="#000"/></svg>