<svg width="24" height="24" fill="none" xmlns="http://www.w3.org/2000/svg"><path d="M3.53 3.061c-.352.076-.628.236-.931.538-.308.309-.462.579-.54.95-.085.402-.085 7.5 0 7.902.104.491.425.944.878 1.237.446.288.415.284 2.643.312 1.945.023 2.008.026 2.28.116a3.115 3.115 0 0 1 2.021 2.024c.078.246.093.408.12 1.34.038 1.327.098 1.578.519 2.2.201.296.685.746 1.002.931.864.506 2.087.506 2.958 0 .337-.195.936-.794 1.131-1.131.167-.288.287-.637.348-1.013.023-.143.041-1.139.041-2.357V14h1.11c.611 0 1.221-.019 1.357-.041.677-.11 1.114-.34 1.633-.859.549-.549.774-.999.87-1.743l.045-.344-.51-2.556a233.91 233.91 0 0 0-.572-2.817 3.928 3.928 0 0 0-.993-1.818 2.739 2.739 0 0 0-1.05-.697l-.27-.105-3.86-.012c-4.127-.014-4.348-.006-4.94.181a4.713 4.713 0 0 0-1.06.503l-.14.098-.242-.225c-.302-.281-.578-.432-.927-.506-.371-.079-2.556-.078-2.921.002M6 8.5V12H4V5h2v3.5m11.317-3.441c.189.097.43.409.562.724.166.399 1.137 5.195 1.098 5.428-.036.219-.247.508-.474.648l-.197.121-1.783.02c-1.984.022-1.936.016-2.222.301-.295.295-.279.125-.301 3.222l-.02 2.783-.121.197a.998.998 0 0 1-1.718 0l-.121-.197-.026-.963c-.034-1.279-.155-1.849-.557-2.618-.651-1.245-1.748-2.15-3.047-2.512L8 12.104V9.42c0-2.913-.001-2.905.225-3.35.137-.27.576-.709.846-.845.445-.226.319-.22 4.381-.222 3.222-.003 3.768.005 3.865.056" fill-rule="evenodd" fill="#000"/></svg>