<svg width="24" height="24" fill="none" xmlns="http://www.w3.org/2000/svg"><path d="M6.503 2.042c-.651.109-1.336.499-1.781 1.015a2.613 2.613 0 0 0-.487.794C3.988 4.452 4 4.02 4 12c0 7.991-.013 7.546.238 8.156.154.372.344.653.648.958.435.434.929.7 1.535.825.437.09 10.731.091 11.159.001a3.005 3.005 0 0 0 2.36-2.36c.089-.422.089-10.29 0-10.632-.151-.583-.069-.49-3.234-3.651-2.491-2.489-2.962-2.942-3.17-3.049-.482-.249-.448-.247-3.796-.243-1.672.003-3.129.019-3.237.037M15.29 6.71 18 9.42v4.863c0 5.466.02 5.099-.299 5.418-.32.32.082.299-5.701.299-5.783 0-5.381.021-5.701-.299C5.975 19.377 6 20.023 6 12c0-8.025-.025-7.377.3-7.702.303-.303.169-.291 3.4-.295L12.58 4l2.71 2.71m-6.71 4.385a.994.994 0 0 0-.011 1.802l.207.103 3.222-.001c3.032-.001 3.231-.005 3.382-.074a1.01 1.01 0 0 0 .517-.494c.246-.493.042-1.075-.466-1.328L15.224 11h-3.222l-3.222.001-.2.094m0 4a.994.994 0 0 0-.011 1.802l.207.103 3.222-.001c3.032-.001 3.231-.005 3.382-.074a1.01 1.01 0 0 0 .517-.494c.246-.493.042-1.075-.466-1.328L15.224 15h-3.222l-3.222.001-.2.094" fill="#25324B" fill-rule="evenodd"/></svg>