<svg width="24" height="24" fill="none" xmlns="http://www.w3.org/2000/svg"><path d="M11.643 2.069a1.066 1.066 0 0 0-.577.591c-.055.162-.066.373-.066 1.262V4.99l-.81.021c-.945.025-1.269.089-1.853.365-.621.295-1.074.643-1.451 1.116-1.68 2.112-.856 5.231 1.645 6.225.519.206 1.006.283 1.785.283H11v4H9.927c-.894 0-1.105-.011-1.267-.066C8.291 16.808 8 16.396 8 16s-.291-.808-.66-.934c-.689-.235-1.34.252-1.34 1.003 0 .476.213 1.156.496 1.583.182.273.579.67.852.852.117.077.34.193.496.258.506.208.757.238 2.014.238H11v1.073c0 1.235.021 1.35.299 1.628a.984.984 0 0 0 1.402 0c.278-.278.299-.393.299-1.628V19h.684c.779 0 1.266-.077 1.785-.283 1.79-.712 2.831-2.615 2.45-4.482-.266-1.305-1.036-2.281-2.256-2.859-.584-.276-.908-.34-1.853-.365L13 10.99V7h1.073c.894 0 1.105.011 1.267.066.369.126.66.538.66.934s.291.808.66.934c.689.235 1.34-.252 1.34-1.003 0-.442-.202-1.122-.451-1.516a3.15 3.15 0 0 0-1.253-1.103c-.572-.275-.617-.282-2.026-.301L13 4.993V3.924c0-1.232-.021-1.347-.299-1.625a.998.998 0 0 0-1.058-.23M11 9v2h-.598c-.677 0-.916-.039-1.268-.204-.456-.215-.814-.616-1.015-1.136-.123-.319-.134-.932-.024-1.26.208-.616.697-1.108 1.285-1.293.289-.091.338-.096 1.01-.102L11 7v2m3.66 4.119c.605.234.985.614 1.221 1.221.134.344.134.975 0 1.32-.26.672-.741 1.104-1.419 1.279-.164.042-.432.061-.85.061H13v-4.009l.71.018c.62.015.74.029.95.11"/></svg>