<svg width="24" height="24" fill="none" xmlns="http://www.w3.org/2000/svg"><path d="M18.49 1.922a3.374 3.374 0 0 0-1.47.68c-.132.106-2.187 2.142-4.567 4.525-4.22 4.227-4.328 4.338-4.39 4.55-.093.321-.094 3.326 0 3.639a.958.958 0 0 0 .621.621c.314.094 3.318.093 3.639 0 .212-.062.325-.171 4.531-4.37 2.373-2.369 4.421-4.439 4.551-4.6.263-.327.514-.815.62-1.207.097-.358.097-1.162 0-1.52-.172-.636-.593-1.285-1.08-1.666a3.711 3.711 0 0 0-1.165-.592c-.294-.079-1.005-.112-1.29-.06m.893 2.025c.41.14.737.606.737 1.053 0 .379-.092.538-.625 1.08l-.492.5-.792-.791-.791-.792.5-.492c.543-.534.682-.616 1.063-.622.111-.002.291.027.4.064M5.503 6.042c-.801.135-1.614.678-2.052 1.373a3.516 3.516 0 0 0-.39 1.006c-.092.444-.092 9.714 0 10.158.125.606.391 1.1.825 1.535.435.434.929.7 1.535.825.436.09 9.732.091 10.159.001a3.005 3.005 0 0 0 2.36-2.36c.046-.222.059-.639.059-2.003.001-1.957-.002-1.982-.299-2.279a.987.987 0 0 0-1.169-.172 1.065 1.065 0 0 0-.489.585c-.026.091-.042.784-.042 1.792 0 1.867-.005 1.904-.299 2.198-.318.319.022.299-5.201.299s-4.883.02-5.201-.299C4.98 18.383 5 18.723 5 13.5s-.02-4.883.299-5.201C5.593 8.005 5.629 8 7.5 8s1.907-.005 2.201-.299a.984.984 0 0 0 0-1.402c-.296-.296-.321-.3-2.278-.294-.948.002-1.812.019-1.92.037M16.8 7.22l.78.78-3 3-3 3H10v-1.58l2.99-2.99A322.113 322.113 0 0 1 16 6.44c.012 0 .371.351.8.78" fill="#25324B" fill-rule="evenodd"/></svg>