<svg width="24" height="24" fill="none" xmlns="http://www.w3.org/2000/svg"><path d="M4.506 4.042c-.646.108-1.099.35-1.606.858-.519.519-.749.956-.859 1.633-.055.337-.055 10.597 0 10.934.11.677.34 1.114.859 1.633.519.519.956.749 1.633.859.338.055 14.596.055 14.934 0 .677-.11 1.114-.34 1.633-.859.519-.519.749-.956.859-1.633.055-.337.055-10.597 0-10.934-.11-.677-.34-1.114-.859-1.633-.519-.519-.956-.749-1.633-.859-.3-.049-14.67-.048-14.961.001m14.983 2.089c.208.122.424.373.367.426-.02.018-1.795 1.206-3.946 2.638L12 11.8 8.09 9.195a679.358 679.358 0 0 1-3.945-2.637c-.046-.042.105-.251.262-.363.282-.201-.077-.193 7.653-.183l7.24.008.189.111M7.9 11.466c3.043 2.028 3.716 2.46 3.889 2.499.433.1.272.193 4.411-2.566l3.78-2.519.01 4.125c.007 2.662-.004 4.178-.03 4.274a1.074 1.074 0 0 1-.468.588l-.192.113-7.214.01c-4.754.007-7.265-.003-7.364-.029a1.082 1.082 0 0 1-.589-.469L4.02 17.3l-.011-4.215-.01-4.215.11.072L7.9 11.466" fill-rule="evenodd" fill="#000"/></svg>