<svg width="24" height="24" fill="none" xmlns="http://www.w3.org/2000/svg"><path d="M11.02 3.644C6.347 4.023 2.251 7.169.701 11.569l-.151.43.126.363c.712 2.037 2.059 3.962 3.717 5.31a11.997 11.997 0 0 0 15.214-.001c1.706-1.391 3.1-3.41 3.772-5.464l.069-.212-.126-.36a12.123 12.123 0 0 0-4.062-5.583 12.045 12.045 0 0 0-8.24-2.408m1.727 3.616c1.512.245 2.845 1.211 3.519 2.552.938 1.866.617 4.023-.823 5.522-1.868 1.945-5.018 1.945-6.886 0-1.244-1.294-1.675-3.155-1.117-4.821.754-2.25 3-3.627 5.307-3.253M11.48 9.662a2.29 2.29 0 0 0-1.161.654c-.347.349-.525.658-.64 1.108a2.416 2.416 0 0 0 .209 1.709c.17.324.655.809.979.979.319.167.794.288 1.133.288.339 0 .814-.121 1.133-.288.324-.17.809-.655.979-.979a2.416 2.416 0 0 0 .209-1.709c-.115-.45-.293-.759-.64-1.108a2.337 2.337 0 0 0-2.201-.654" fill="#25324B" fill-rule="evenodd"/></svg>