<svg width="512" height="512" viewBox="0 0 20 20" fill="none" xmlns="http://www.w3.org/2000/svg">
<path d="M9.00004 3.80001C7.44228 3.95399 5.94266 4.47256 4.62254 5.31376C3.38004 6.10751 2.26879 7.21751 1.38254 8.55001C0.871289 9.31751 0.633789 9.77876 0.633789 10C0.633789 10.2163 0.867539 10.6738 1.34754 11.4C2.92754 13.7863 5.17629 15.4125 7.68629 15.9838C8.53504 16.1775 8.90504 16.2138 10 16.2138C11.095 16.2138 11.465 16.1775 12.3138 15.9838C13.8475 15.635 15.3488 14.8563 16.6163 13.7525C17.5913 12.9038 18.6113 11.6188 19.18 10.525C19.4325 10.04 19.4325 9.96001 19.18 9.47501C18.7925 8.72876 18.1088 7.77626 17.4488 7.06001C16.0325 5.52751 14.1988 4.44001 12.3125 4.01626C11.5138 3.83751 11.1388 3.79626 10.1838 3.78376C9.68879 3.77626 9.15629 3.78376 9.00004 3.80001M10.8338 5.03501C13.64 5.28751 15.98 6.77501 17.695 9.39626C18.0275 9.90376 18.055 9.96751 18 10.1013C17.9438 10.2363 17.48 10.9425 17.2263 11.2775C16.4462 12.3211 15.469 13.2014 14.35 13.8688C12.4425 14.9913 9.92254 15.3025 7.63879 14.6975C5.79379 14.2088 4.07379 13 2.77379 11.2775C2.52004 10.9425 2.05629 10.2363 2.00004 10.1013C1.94504 9.96751 1.97254 9.90376 2.30504 9.39626C3.68879 7.28126 5.54254 5.85751 7.63879 5.30251C8.68112 5.03402 9.76132 4.94358 10.8338 5.03501M9.32129 6.32001C8.6677 6.44542 8.05867 6.74078 7.55551 7.17636C7.05234 7.61194 6.67278 8.17237 6.45504 8.80126C6.20504 9.53626 6.20504 10.4675 6.45629 11.1988C6.67372 11.8325 7.05628 12.3968 7.56451 12.8334C8.07275 13.27 8.68825 13.5631 9.34754 13.6825C9.88517 13.7775 10.4371 13.7535 10.9644 13.6122C11.4918 13.4709 11.9818 13.2158 12.3999 12.8647C12.8181 12.5137 13.1542 12.0753 13.3846 11.5803C13.6151 11.0854 13.7343 10.546 13.7338 10C13.7357 9.12172 13.4278 8.27089 12.8642 7.59729C12.3006 6.92369 11.5174 6.47051 10.6525 6.31751C10.2109 6.25521 9.76268 6.25605 9.32129 6.32001M10.5263 7.55251C10.85 7.61751 11.3225 7.84501 11.58 8.06001C12.48 8.81001 12.755 10.0463 12.25 11.0838C12.1086 11.38 11.91 11.6454 11.6655 11.8645C11.4211 12.0837 11.1358 12.2523 10.8259 12.3607C10.516 12.4691 10.1878 12.5152 9.86003 12.4962C9.53229 12.4772 9.21156 12.3935 8.91629 12.25C8.40377 12.0087 7.99137 11.5963 7.75004 11.0838C7.50543 10.5778 7.43851 10.0042 7.56008 9.45556C7.68165 8.90691 7.98462 8.41526 8.42004 8.06001C8.66754 7.85251 9.14629 7.61876 9.45004 7.55501C9.76129 7.48876 10.2113 7.48751 10.5263 7.55251" fill="black"/>
</svg>
