<svg width="24" height="24" fill="none" xmlns="http://www.w3.org/2000/svg"><path d="M11.36 4.025c-1.256.118-2.214.386-3.34.935-1.107.539-1.897 1.111-2.893 2.094-1.178 1.162-2.096 2.493-2.888 4.186-.2.428-.215.481-.215.76 0 .281.015.331.228.788.773 1.657 1.703 3.002 2.875 4.158.578.57.758.728 1.281 1.117C8.084 19.313 10.068 20 12 20a9.054 9.054 0 0 0 3.9-.916c1.163-.561 1.969-1.147 3.001-2.181 1.144-1.147 1.876-2.17 2.614-3.65.427-.856.465-.958.465-1.253 0-.295-.038-.397-.465-1.253-1.321-2.65-3.262-4.68-5.535-5.787-.941-.459-1.786-.728-2.711-.861-.413-.06-1.577-.105-1.909-.074m1.754 2.073c.447.08 1.034.242 1.392.384 2.1.835 3.926 2.626 5.166 5.068l.228.45-.228.45c-1.13 2.225-2.699 3.87-4.572 4.793a7.301 7.301 0 0 1-1.867.644c-.654.132-1.812.132-2.466 0a8.095 8.095 0 0 1-3.236-1.479c-1.284-.98-2.375-2.328-3.202-3.959l-.229-.451.259-.506C5.588 9.087 7.41 7.31 9.5 6.48c.515-.205 1.242-.376 1.94-.457.276-.032 1.346.016 1.674.075M11.433 8.04a3.804 3.804 0 0 0-1.098.338c-.49.231-.815.458-1.176.82-1.698 1.703-1.495 4.531.43 5.987a3.985 3.985 0 0 0 4.604.15c1.337-.871 2.047-2.55 1.73-4.087-.222-1.076-.794-1.951-1.658-2.538a4.749 4.749 0 0 0-1.307-.59c-.386-.094-1.175-.136-1.525-.08m1.214 2.075a2.019 2.019 0 0 1 1.258 1.285c.11.328.099.941-.024 1.26-.543 1.408-2.242 1.793-3.282.744a1.97 1.97 0 0 1-.392-2.28c.244-.513.823-.967 1.373-1.08.28-.057.798-.023 1.067.071" fill="#25324B" fill-rule="evenodd"/></svg>