<svg width="24" height="24" fill="none" xmlns="http://www.w3.org/2000/svg"><path d="M13.74 2.044c-1.829.108-3.266 1.19-3.792 2.857-.23.73-.236.791-.257 2.669l-.019 1.75H6.6v3.56h3.08V22h3.68v-9.12h1.54c1.312 0 1.54-.009 1.54-.057 0-.061.386-3.095.427-3.353l.023-.15h-3.53l.001-1.13c.001-1.276.042-1.836.154-2.087.116-.264.334-.478.615-.605.221-.1.316-.116.83-.143.319-.016.908-.031 1.31-.032L17 5.32V3.788c0-1.165-.012-1.549-.05-1.598-.041-.054-.183-.074-.79-.107-1.019-.056-1.898-.07-2.42-.039" fill="#25324B" fill-rule="evenodd"/></svg>