<svg width="24" height="24" fill="none" xmlns="http://www.w3.org/2000/svg"><path d="M10.31 1.057a1.03 1.03 0 0 0-.533.445c-.086.146-.119.29-.182.788-.17 1.343-.607 2.446-1.375 3.465-.313.415-1.046 1.149-1.364 1.366-2.451 1.672-3.959 4.701-3.843 7.719a8.968 8.968 0 0 0 5.119 7.78c.588.28.77.326 1.048.263.577-.129.885-.634.753-1.237-.165-.754-.213-1.191-.211-1.906.002-.473.016-.699.041-.66l.271.436c.373.601.673.985 1.185 1.516a8.632 8.632 0 0 0 2.454 1.819c.472.238.506.249.78.247.231-.002.364-.032.687-.154a9.116 9.116 0 0 0 3.363-2.228c2.034-2.101 2.896-5.082 2.31-7.996-.314-1.562-1.031-2.985-2.131-4.231-.396-.448-.61-.569-1-.568-.476.001-.677.155-1.055.805a5.781 5.781 0 0 1-.966 1.234c-.253.245-.268.253-.246.14.119-.614.139-1.755.044-2.488a8.74 8.74 0 0 0-3.891-6.204c-.606-.399-.897-.48-1.258-.351m1.452 3.113c1.861 2.092 2.28 4.939 1.098 7.454-.223.475-.261.713-.16 1.017.141.424.613.724 1.046.664.429-.058 1.474-.53 2.134-.962.655-.43 1.341-1.043 1.789-1.598l.125-.156.15.235c.083.129.254.451.38.715 1.262 2.648.699 5.847-1.394 7.928a7.182 7.182 0 0 1-2.098 1.441l-.319.139-.327-.19c-1.712-.992-2.988-2.765-3.323-4.617l-.109-.59c-.152-.806-1.156-1.112-1.702-.518-.183.199-.506.814-.732 1.392-.354.908-.538 1.756-.614 2.828l-.046.654-.32-.279c-.823-.716-1.604-1.89-1.96-2.945a7.057 7.057 0 0 1 1.209-6.702 7.9 7.9 0 0 1 1.226-1.181 9.898 9.898 0 0 0 1.876-1.767c.7-.88 1.318-2.084 1.611-3.142.035-.126.071-.23.079-.23.009 0 .18.185.381.41" fill="#25324B" fill-rule="evenodd"/></svg>