<svg width="24" height="24" fill="none" xmlns="http://www.w3.org/2000/svg"><path d="M8.2 2.588a6.125 6.125 0 0 0-2.656.774c-.679.39-1.288.901-1.443 1.211L4 4.776v8.165c0 7.193.007 8.189.061 8.369.112.378.537.69.939.69.223 0 .51-.12.679-.283.321-.312.299-.045.321-3.876l.02-3.418.305-.204a4.51 4.51 0 0 1 1.355-.566c.415-.091 1.203-.091 1.629-.001a4.548 4.548 0 0 1 1.368.566c.154.103.456.343.672.534.703.627 1.237.967 1.951 1.246.75.292 1.381.41 2.2.41.819 0 1.45-.118 2.2-.41.861-.336 1.91-1.068 2.174-1.517l.106-.181.011-4.713c.007-3.18-.003-4.764-.031-4.869-.063-.234-.273-.48-.521-.61-.193-.102-.25-.114-.479-.098-.307.021-.45.088-.732.342a3.865 3.865 0 0 1-.929.641c-1.166.579-2.43.579-3.599-.001-.373-.185-.629-.369-1.1-.79a5.96 5.96 0 0 0-1.144-.84A6.141 6.141 0 0 0 8.2 2.588m1.131 2.071c.414.086 1.001.33 1.346.559.154.103.456.343.672.534.703.627 1.237.967 1.951 1.246.627.244 1.1.351 1.78.4a6.069 6.069 0 0 0 2.71-.432l.21-.085v6.672l-.191.141a4.559 4.559 0 0 1-.51.299c-1.166.579-2.43.579-3.599-.001-.373-.185-.629-.369-1.1-.79-.639-.572-1.203-.928-1.9-1.2a5.534 5.534 0 0 0-1.78-.4 6.069 6.069 0 0 0-2.71.432l-.21.085V5.444l.23-.165c.845-.605 2.028-.842 3.101-.62" fill-rule="evenodd" fill="#000"/></svg>