<svg xmlns="http://www.w3.org/2000/svg" viewBox="0 0 29 29" xml:space="preserve"><path d="M4.316 4.085c-.806.175-1.615.816-1.981 1.57-.109.226-.228.53-.264.677-.053.217-.065 1.721-.065 8.216 0 7.583.004 7.965.089 8.241.32 1.046 1.165 1.869 2.181 2.126.252.064 1.526.073 10.224.073s9.972-.009 10.224-.073c1.016-.257 1.861-1.08 2.181-2.126.085-.275.089-.616.089-6.791v-6.5L26.86 9.1c-.162-.477-.527-1.041-.868-1.339-.272-.238-.655-.457-1.087-.622l-.279-.106-5.728-.025c-5.493-.023-5.735-.028-5.911-.115-.253-.126-.401-.338-.591-.847-.371-.998-1.114-1.691-2.077-1.938-.356-.091-.53-.096-3.04-.092-2.043.002-2.733.019-2.963.069m5.721 2.048c.264.151.373.306.544.777.194.529.424.892.787 1.24.344.329.631.51 1.096.691l.32.125 5.752.024c6.34.027 5.868.002 6.172.322.23.243.28.439.28 1.102v.606H4.012l.001-2.115c.001-2.343 0-2.332.325-2.638.29-.271.298-.272 3.009-.26l2.489.011.201.115m14.95 11.472c-.001 4.374-.005 4.614-.09 4.801-.113.249-.392.48-.661.548-.295.074-19.177.074-19.472 0a1.073 1.073 0 0 1-.661-.548c-.085-.187-.089-.427-.09-4.801l-.001-4.603h20.976l-.001 4.603" fill-rule="evenodd"/></svg>