<svg xmlns="http://www.w3.org/2000/svg" width="1792" height="1792"><path d="M827.714 131.51C679.38 145.885 537.882 201.807 421.12 292.2c-33.7 26.09-93.875 85.076-120.854 118.467-88.44 109.457-143.982 239.117-166.32 388.266-5.374 35.88-5.379 158.2-.008 194.134 34.818 232.962 154.023 422.981 342.435 545.863 91.391 59.605 193.988 98.456 310.614 117.622 40.422 6.643 161.891 7.552 210.56 1.576 124.19-15.248 228.892-52.338 322.026-114.074 200.862-133.147 311.845-355.033 312.191-624.161.073-56.073-2.002-84.917-8.969-124.693l-1.7-9.707H896v265.814h435.904l-1.76 9.706c-6.954 38.352-34.778 99.55-63.506 139.679-63.235 88.331-136.341 137.542-245.897 165.523-47.872 12.226-108.095 16.072-172.528 11.018-134.129-10.521-264.754-89.429-344.039-207.827C354.2 945.447 412.783 641.091 634.508 492.289c69.873-46.893 138.147-70.95 219.679-77.404 126.16-9.988 238.061 22.522 323.682 94.036l23.522 19.647 13.811-11.626c7.596-6.395 54.131-51.243 103.411-99.663l89.6-88.037-7.466-8.124c-11.641-12.667-58.454-49.515-88.107-69.354-92.069-61.597-187.072-97.856-299.386-114.264-48.23-7.046-143.055-10.108-185.54-5.99" fill-rule="evenodd"/></svg>