<svg width="24" height="24" fill="none" xmlns="http://www.w3.org/2000/svg"><path d="M5.673 2.063c-.261.08-.533.358-.612.627A1.68 1.68 0 0 0 5 2.939c0 .026-.146.064-.35.09-.751.097-1.2.32-1.75.871-.519.519-.749.956-.859 1.633-.053.324-.052 3.949 0 4.547a6.46 6.46 0 0 0 3.557 5.221c.411.205.819.36 1.201.457l.258.066.047.298a6.975 6.975 0 0 0 3.364 4.906c2.176 1.283 4.978 1.271 7.114-.031.579-.353.94-.637 1.397-1.099a6.973 6.973 0 0 0 1.76-3.06c.204-.755.229-1.007.25-2.547l.02-1.449.212-.097c.72-.33 1.4-1.078 1.623-1.785.258-.82.17-1.746-.233-2.44-.195-.337-.794-.936-1.131-1.131-.871-.506-2.089-.506-2.96 0-.337.195-.936.794-1.131 1.131-.506.871-.506 2.094 0 2.958.295.505.873 1.03 1.397 1.27l.22.101-.017 1.425c-.018 1.53-.034 1.67-.257 2.326-.257.752-.625 1.337-1.21 1.922-.734.734-1.53 1.164-2.562 1.385-.471.101-1.449.101-1.92 0-1.032-.221-1.828-.651-2.562-1.385-.674-.674-1.09-1.395-1.319-2.285l-.068-.265.325-.049c2.165-.325 3.946-1.622 4.913-3.577.258-.522.434-1.063.579-1.786.078-.387.125-4.549.056-4.99-.109-.704-.335-1.142-.864-1.67-.55-.551-.999-.774-1.75-.871-.204-.026-.35-.064-.35-.09a1.68 1.68 0 0 0-.061-.249C11.827 2.312 11.402 2 11 2c-.402 0-.827.312-.939.69-.088.297-.088 2.323 0 2.62.112.378.537.69.939.69.402 0 .827-.312.939-.69.034-.112.061-.231.061-.262 0-.046.036-.052.17-.031.341.054.654.319.773.653.042.118.054.588.055 2.175.002 2.192-.011 2.371-.222 3.042-.421 1.335-1.554 2.468-2.889 2.889a4.444 4.444 0 0 1-2.774 0c-1.335-.421-2.468-1.554-2.889-2.889-.211-.671-.224-.85-.222-3.042.001-1.587.013-2.057.055-2.175.119-.334.432-.599.773-.653.134-.021.17-.015.17.031 0 .031.027.15.061.262.112.378.537.69.939.69.237 0 .514-.12.697-.303C6.98 5.414 7 5.303 7 4s-.02-1.414-.303-1.697c-.279-.279-.63-.361-1.024-.24m14.839 7.084c.63.387.642 1.299.023 1.692a.998.998 0 0 1-1.394-.336c-.107-.174-.121-.232-.121-.5 0-.259.016-.33.111-.492a.955.955 0 0 1 .941-.496.836.836 0 0 1 .44.132" fill-rule="evenodd" fill="#000"/></svg>