<svg xmlns="http://www.w3.org/2000/svg" width="16" height="16"><path d="M4.827 2.016c-1.813.107-3.204 1.295-3.668 3.131-.335 1.325-.096 2.452.803 3.791 1.016 1.513 2.821 3.168 5.271 4.832l.5.34.46-.312c2.857-1.937 4.937-3.989 5.78-5.702.32-.649.448-1.113.472-1.71.036-.877-.192-1.809-.61-2.498-.522-.862-1.305-1.471-2.225-1.729-.496-.139-1.218-.18-1.663-.095-.654.125-1.373.488-1.989 1.004l-.216.181-.238-.198c-.908-.758-1.762-1.089-2.677-1.035m.605 1.036c.615.131 1.146.467 1.895 1.198l.407.398.38-.371c.87-.851 1.557-1.221 2.328-1.256.84-.039 1.578.258 2.14.86.541.579.816 1.284.85 2.178.024.649-.042.947-.349 1.581-.639 1.316-2.197 2.947-4.336 4.538-.576.429-.971.702-1.014.702-.06 0-.958-.64-1.585-1.13C3.78 9.901 2.32 8.13 2.068 6.799c-.087-.459-.03-1.168.134-1.666.315-.958.987-1.672 1.856-1.97.41-.14 1.008-.189 1.374-.111" fill-rule="evenodd"/></svg>