<svg width="24" height="24" fill="none" xmlns="http://www.w3.org/2000/svg"><path d="M11.1 2.041c-2.094.212-3.908.969-5.528 2.307C4.093 5.57 2.907 7.399 2.386 9.26c-.266.949-.363 1.684-.363 2.74 0 1.056.097 1.791.363 2.74.521 1.861 1.707 3.69 3.186 4.912 1.48 1.223 3.077 1.941 4.968 2.235.744.115 2.083.124 2.8.019 3.557-.524 6.437-2.716 7.845-5.969.549-1.267.791-2.474.791-3.937 0-.888-.054-1.429-.217-2.162-.654-2.948-2.645-5.484-5.335-6.795a9.836 9.836 0 0 0-3.184-.963c-.465-.061-1.701-.083-2.14-.039m1.732 2.001c1.186.13 2.412.55 3.405 1.17a8.48 8.48 0 0 1 2.419 2.348c1.875 2.811 1.773 6.51-.254 9.239-.471.635-1.287 1.407-1.962 1.857a8.043 8.043 0 0 1-8.88 0c-.675-.45-1.491-1.222-1.962-1.857-1.975-2.658-2.128-6.189-.393-9.028.387-.632 1.083-1.424 1.714-1.95 1.137-.947 2.7-1.608 4.201-1.777a10.09 10.09 0 0 1 1.712-.002M11.72 6.001a3.62 3.62 0 0 0-2.227 1.071c-.42.427-.547.744-.457 1.144a.983.983 0 0 0 1.257.728c.191-.056.273-.113.536-.38.352-.355.6-.498.986-.569.623-.115 1.312.214 1.648.786.249.426.273.99.061 1.444-.195.415-.415.614-.998.9-.437.215-.544.288-.788.536-.493.503-.771 1.208-.725 1.844.024.335.12.548.332.734.205.18.37.241.655.241.285 0 .45-.061.655-.241.206-.181.304-.392.343-.745.043-.378.089-.43.617-.688a3.6 3.6 0 0 0 1.606-1.506c.53-.946.579-2.213.124-3.197-.657-1.423-2.082-2.249-3.625-2.102m-.047 10.062c-.261.08-.533.358-.612.627-.077.258-.077.409 0 .635.308.903 1.609.888 1.88-.022.074-.249.074-.358-.002-.613a1.004 1.004 0 0 0-.629-.629.936.936 0 0 0-.637.002" fill-rule="evenodd" fill="#000"/></svg>