<svg width="24" height="24" fill="none" xmlns="http://www.w3.org/2000/svg"><path d="M11.66 2.066c-.188.056-.471.331-4.844 4.707-3.044 3.046-4.667 4.698-4.71 4.794a.984.984 0 0 0 .197 1.129c.251.252.447.304 1.144.304H4v3.11c0 1.886.016 3.207.041 3.357.11.677.34 1.114.859 1.633.519.519.956.749 1.633.859.156.026 2.169.04 5.467.04 3.298 0 5.311-.014 5.467-.04.677-.11 1.114-.34 1.633-.859.519-.519.749-.956.859-1.633.025-.15.041-1.47.041-3.353v-3.107l.63-.014c.526-.011.656-.027.788-.092.24-.118.453-.36.522-.593.076-.256.075-.361-.003-.631-.062-.212-.171-.325-4.73-4.884s-4.672-4.668-4.884-4.73a.974.974 0 0 0-.663.003m3.666 5.68 3.306 3.306-.185.124a1.248 1.248 0 0 0-.306.321l-.121.197-.02 3.803-.02 3.803-.111.189a1.038 1.038 0 0 1-.539.454c-.222.079-10.438.079-10.66 0a1.038 1.038 0 0 1-.539-.454L6.02 19.3 6 15.497l-.02-3.803-.121-.197a1.129 1.129 0 0 0-.306-.317l-.186-.12 3.306-3.31A387.382 387.382 0 0 1 12 4.44c.011 0 1.508 1.488 3.326 3.306" fill-rule="evenodd" fill="#000"/></svg>