<svg width="24" height="24" fill="none" xmlns="http://www.w3.org/2000/svg"><path d="M6.378 3.058c-1.451.225-2.68 1.264-3.163 2.674C3 6.359 3 6.354 3 12s0 5.641.215 6.268A4.002 4.002 0 0 0 6.4 20.942c.565.086 10.635.086 11.2 0a3.982 3.982 0 0 0 3.342-3.342c.086-.565.086-10.635 0-11.2A3.982 3.982 0 0 0 17.6 3.058c-.519-.079-10.712-.079-11.222 0M17.492 5.06c.126.032.323.107.438.165.269.136.709.576.845.845.227.448.225.415.225 3.583v2.916l-.25-.232c-.761-.705-1.401-.985-2.25-.985-.85 0-1.489.28-2.252.987l-.251.233-1.269-1.258c-1.289-1.279-1.571-1.516-2.069-1.736-.691-.306-1.627-.306-2.318 0-.498.22-.78.457-2.071 1.737L5 12.575V9.656c0-3.171-.002-3.138.225-3.586.137-.27.576-.709.846-.845.452-.23.184-.22 5.911-.222 4.558-.003 5.313.005 5.51.057m-2.819 2.003C14.312 7.174 14 7.609 14 8c0 .517.483 1 1 1 .19 0 .497-.115.655-.246.589-.487.384-1.476-.352-1.695a.928.928 0 0 0-.63.004m-4.759 4.379c.148.065.738.632 2.866 2.756 2.592 2.587 2.687 2.677 2.897 2.738.271.08.375.08.633.003.279-.083.546-.35.629-.629.077-.258.077-.363-.003-.63-.058-.195-.131-.283-.787-.948l-.724-.734.212-.215c.298-.302.564-.441.843-.44.407.002.525.087 1.57 1.128l.95.947v.922c0 1.265-.082 1.551-.596 2.064-.286.286-.552.443-.912.536-.344.09-10.64.09-10.984 0-.36-.093-.626-.25-.912-.536-.513-.513-.596-.799-.596-2.063v-.922l1.95-1.945c1.073-1.07 2.013-1.977 2.09-2.016.315-.158.542-.163.874-.016" fill-rule="evenodd" fill="#000"/></svg>