<svg width="24" height="24" fill="none" xmlns="http://www.w3.org/2000/svg"><path d="M11.1 2.041c-2.094.212-3.908.969-5.528 2.307C4.093 5.57 2.907 7.399 2.386 9.26c-.266.949-.363 1.684-.363 2.74 0 1.056.097 1.791.363 2.74.521 1.861 1.707 3.69 3.186 4.912 1.48 1.223 3.077 1.941 4.968 2.235.744.115 2.083.124 2.8.019 3.557-.524 6.437-2.716 7.845-5.969.549-1.267.791-2.474.791-3.937 0-.888-.054-1.429-.217-2.162-.654-2.948-2.645-5.484-5.335-6.795a9.836 9.836 0 0 0-3.184-.963c-.465-.061-1.701-.083-2.14-.039m1.732 2.001c1.186.13 2.412.55 3.405 1.17a8.48 8.48 0 0 1 2.419 2.348c1.875 2.811 1.773 6.51-.254 9.239-.471.635-1.287 1.407-1.962 1.857a8.043 8.043 0 0 1-8.88 0c-.675-.45-1.491-1.222-1.962-1.857-1.975-2.658-2.128-6.189-.393-9.028.387-.632 1.083-1.424 1.714-1.95 1.137-.947 2.7-1.608 4.201-1.777a10.09 10.09 0 0 1 1.712-.002m-1.159 3.021C11.312 7.174 11 7.609 11 8c0 .402.312.827.69.939.255.076.364.076.613.002.921-.275.921-1.607 0-1.882a.928.928 0 0 0-.63.004m-1 4c-.361.111-.673.546-.673.937 0 .402.312.827.69.939.112.034.228.061.257.061.043 0 .053.294.053 1.553 0 1.797.007 1.848.303 2.144.256.256.443.303 1.197.303s.941-.047 1.197-.303c.183-.183.303-.46.303-.697 0-.402-.312-.827-.69-.939a1.569 1.569 0 0 0-.257-.061c-.043 0-.053-.294-.053-1.553 0-1.797-.007-1.848-.303-2.144-.259-.258-.442-.304-1.214-.3-.422.002-.683.021-.81.06" fill-rule="evenodd" fill="#000"/></svg>