<svg width="24" height="24" fill="none" xmlns="http://www.w3.org/2000/svg"><path d="M7.58 3.025c-.714.088-1.273.241-1.76.484a5.054 5.054 0 0 0-2.73 3.569c-.064.314-.07.724-.07 4.922 0 4.198.006 4.608.07 4.922a5.058 5.058 0 0 0 2.731 3.57c.32.16.945.36 1.359.436.407.075 9.233.075 9.64 0 2.129-.391 3.717-1.979 4.108-4.108.075-.407.075-9.233 0-9.64-.379-2.064-1.838-3.583-3.908-4.071-.355-.084-.428-.085-4.84-.092-2.464-.004-4.534 0-4.6.008m9.28 2.089c.991.332 1.722 1.07 2.026 2.046l.094.3v9.08l-.094.3a3.086 3.086 0 0 1-2.046 2.046l-.3.094H7.46l-.3-.094a3.086 3.086 0 0 1-2.046-2.046l-.094-.3V7.46l.094-.3a3.085 3.085 0 0 1 2.329-2.117c.097-.019 2.193-.032 4.657-.029l4.48.006.28.094m-.814 1.509c-.366.185-.547.518-.519.957a.929.929 0 0 0 .451.759c.176.109.229.121.522.121.293 0 .346-.012.522-.121.121-.075.242-.196.317-.317.109-.176.121-.229.121-.522 0-.293-.012-.346-.121-.522-.179-.289-.434-.433-.795-.45-.245-.011-.314.002-.498.095m-4.668 1.435c-2.084.324-3.585 2.285-3.343 4.367.256 2.204 2.224 3.792 4.39 3.54 2.204-.256 3.792-2.224 3.54-4.39-.265-2.284-2.331-3.868-4.587-3.517m1.114 2.002c.126.032.323.107.438.165.269.136.709.576.845.845a2.047 2.047 0 0 1 0 1.86c-.136.269-.576.709-.845.845a2.047 2.047 0 0 1-1.86 0c-.269-.136-.709-.576-.845-.845a2.047 2.047 0 0 1 0-1.86c.137-.27.576-.709.846-.845a2.078 2.078 0 0 1 1.421-.165" fill-rule="evenodd" fill="#000"/></svg>