<svg width="24" height="24" fill="none" xmlns="http://www.w3.org/2000/svg"><path d="M9.538 1.801c-.613.11-1.18.407-1.669.874-.646.617-.946 1.247-1.013 2.125-.062.813.177 1.62.672 2.266.318.415 3.923 3.925 4.127 4.017.21.096.48.096.685.001.208-.095 3.868-3.669 4.12-4.022.227-.318.509-.916.605-1.282.1-.382.1-1.213-.001-1.58-.161-.591-.551-1.214-.994-1.593-1.098-.936-2.606-1.101-3.793-.414l-.272.158-.433-.216a4.652 4.652 0 0 0-.672-.279c-.285-.074-1.077-.107-1.362-.055M3.42 2.883c-.744.111-1.46.805-1.618 1.569-.031.148-.041 1.32-.033 3.89l.012 3.678.09.32c.05.176.16.455.245.62.084.165.872 1.434 1.75 2.82 1.812 2.86 1.784 2.814 1.889 3.105.141.388.165.623.165 1.627 0 .566.018 1.053.042 1.139.055.197.256.423.458.514.152.07.423.073 5.58.073s5.428-.003 5.58-.073c.202-.091.403-.317.458-.514.024-.086.042-.573.042-1.139 0-1.004.024-1.239.165-1.627.105-.291.077-.245 1.889-3.105.878-1.386 1.666-2.655 1.75-2.82.085-.165.195-.444.245-.62l.09-.32.012-3.698c.008-2.566-.002-3.762-.032-3.909-.205-.984-1.218-1.675-2.249-1.533-.794.11-1.524.808-1.67 1.595-.023.127-.04 1.106-.04 2.37V9h-.312c-.361 0-.697.078-.985.229-.151.079-.815.717-2.573 2.468L12 14.058l-2.37-2.361C7.872 9.946 7.208 9.308 7.057 9.229A2.113 2.113 0 0 0 6.072 9H5.76V6.822c0-1.431-.015-2.251-.044-2.39-.105-.507-.48-1.024-.936-1.293a2.066 2.066 0 0 0-1.36-.256m6.921.561c.313.057.63.223.947.493.298.255.481.343.712.343.23 0 .396-.081.704-.342.148-.126.388-.284.533-.353.239-.113.299-.124.663-.124.352-.001.428.012.631.107.3.141.681.505.808.773.218.462.2.925-.056 1.443-.157.316-.209.372-1.724 1.855l-1.561 1.528-1.369-1.339c-1.641-1.606-1.795-1.765-1.9-1.971-.244-.478-.275-1.084-.078-1.497.203-.423.744-.846 1.177-.918.273-.046.254-.046.513.002M3.966 4.596l.094.077.021 3.333c.021 3.296.022 3.337.109 3.594.048.143.144.35.213.46.136.217 2.282 2.397 2.524 2.565.693.48 1.59-.25 1.236-1.005-.048-.103-.468-.551-1.182-1.26-.608-.605-1.132-1.149-1.164-1.208-.081-.153-.071-.251.038-.378a.273.273 0 0 1 .242-.11c.141 0 .242.095 2.466 2.318 2.068 2.066 2.334 2.346 2.449 2.577l.128.259.011 2.391.011 2.391H7.6v-.47c0-.859-.13-1.532-.415-2.146-.072-.156-.821-1.373-1.665-2.704a452.732 452.732 0 0 1-1.741-2.76c-.387-.637-.355-.286-.37-4.1-.008-1.848-.002-3.439.012-3.535.046-.314.328-.464.545-.289m16.493.02a.511.511 0 0 1 .121.23c.013.073.018 1.664.011 3.534-.015 3.86.017 3.503-.37 4.14-.114.187-.897 1.429-1.741 2.76-.844 1.331-1.593 2.548-1.665 2.704-.288.622-.414 1.273-.415 2.146v.47h-3.562l.011-2.391.011-2.391.128-.259c.115-.231.381-.511 2.449-2.577 2.224-2.223 2.325-2.318 2.466-2.318.111 0 .171.027.242.11.109.127.119.225.038.378-.032.059-.556.603-1.164 1.208-.714.709-1.134 1.157-1.182 1.26-.214.455.056 1.013.551 1.138a.808.808 0 0 0 .632-.099c.215-.124 2.418-2.346 2.577-2.599a2.68 2.68 0 0 0 .214-.46c.087-.258.087-.284.099-3.54.008-2.29.024-3.306.055-3.366a.313.313 0 0 1 .494-.078" fill="#25324B" fill-rule="evenodd"/></svg>