<svg width="24" height="24" fill="none" xmlns="http://www.w3.org/2000/svg"><path d="M14.645 1.825a6.633 6.633 0 0 0-4.093 2.193A6.582 6.582 0 0 0 8.88 8.38v.5h-.5c-2.999 0-5.668 2.092-6.418 5.031-.21.823-.253 1.959-.105 2.789.175.984.608 2.025 1.135 2.729l.096.129-.608.706c-.335.388-.633.766-.664.84-.09.214-.07.46.055.7a.629.629 0 0 0 .325.325l.213.111h3.214c3.417 0 3.728-.014 4.466-.202.6-.154 1.333-.46 1.812-.759 2.021-1.263 3.219-3.369 3.219-5.659v-.5H21.653l.174-.102a.844.844 0 0 0 .4-.611c.039-.335-.026-.462-.548-1.067a82.321 82.321 0 0 1-.625-.729l-.142-.169.139-.191c.725-.993 1.186-2.453 1.188-3.759a6.723 6.723 0 0 0-1.982-4.789 6.67 6.67 0 0 0-5.612-1.878m1.651 1.66c2.067.27 3.832 1.989 4.204 4.095.073.416.085 1.24.023 1.626-.154.954-.532 1.76-1.197 2.553-.26.31-.326.455-.325.71.001.248.102.458.354.737.113.125.205.239.205.253 0 .046-4.599-.005-4.844-.054-1.033-.204-1.918-.659-2.641-1.355-2.511-2.417-1.851-6.587 1.285-8.113.938-.457 1.841-.596 2.936-.452m-1.065.717c-.554.064-1.003.289-1.437.72-.474.472-.714 1.035-.714 1.677 0 .333.033.429.221.637.342.378.969.329 1.27-.099.085-.121.124-.238.151-.45.042-.337.104-.471.293-.637.534-.469 1.362-.085 1.356.63-.003.254-.069.411-.237.562-.204.183-.241.199-.576.258-.419.074-.593.185-.733.465l-.105.211v1.022c.001.999.003 1.027.098 1.232a.696.696 0 0 0 .29.332c.176.113.216.123.476.11.319-.015.495-.106.655-.339.125-.183.157-.383.159-.998l.002-.524.173-.066c.418-.16.953-.665 1.195-1.13.212-.405.287-.766.263-1.264-.034-.724-.332-1.335-.869-1.78a2.488 2.488 0 0 0-1.931-.569m-6.055 6.382c.031.012.068.067.082.123.049.196.357.838.57 1.189a6.907 6.907 0 0 0 2.112 2.177c.328.211.952.526 1.248.631.14.049.214.1.227.155.056.234.069.772.027 1.163-.12 1.125-.51 2.024-1.236 2.849-.736.834-1.646 1.358-2.815 1.617-.345.077-.535.084-2.661.101-1.26.01-2.29.007-2.29-.008s.102-.147.226-.293c.265-.312.334-.459.334-.708 0-.246-.085-.434-.317-.701a4.935 4.935 0 0 1-1.247-3.339c0-1.23.403-2.311 1.217-3.265a5.01 5.01 0 0 1 3.227-1.713c.294-.036 1.184-.021 1.296.022m6.198.453a.822.822 0 0 0-.4 1.388c.31.31.735.336 1.096.067.308-.228.397-.722.193-1.07-.172-.294-.565-.464-.889-.385M6.16 13.624c-.336.145-.495.423-.473.82.013.231.034.294.138.424.067.083.193.192.279.241l.156.09h2.167c1.247.001 2.21-.015 2.266-.036.14-.054.38-.274.456-.419.085-.162.085-.565.001-.724a.934.934 0 0 0-.439-.398c-.22-.092-4.338-.09-4.551.002m.141 2.3c-.377.091-.592.354-.613.752-.018.333.093.567.355.744l.177.12 2.131.011c1.453.008 2.182-.002 2.293-.032.1-.027.229-.11.334-.215a.814.814 0 0 0-.169-1.293l-.189-.111-2.08-.007c-1.215-.004-2.146.009-2.239.031" fill="#25324B" fill-rule="evenodd"/></svg>