<svg width="24" height="24" fill="none" xmlns="http://www.w3.org/2000/svg"><path d="M10.673 4.063C10.312 4.174 10 4.609 10 5c0 .237.12.514.303.697.274.274.416.303 1.484.303.491 0 .892.005.892.01L10.967 12l-1.71 5.98-1.258.02c-1.415.022-1.428.025-1.716.321A1.085 1.085 0 0 0 6 19c0 .402.312.827.69.939.307.091 6.313.091 6.62 0 .378-.112.69-.537.69-.939 0-.237-.12-.514-.303-.697-.274-.274-.416-.303-1.484-.303-.491 0-.892-.005-.892-.01L13.033 12l1.71-5.98L16.001 6c1.415-.022 1.428-.025 1.716-.321C17.88 5.51 18 5.223 18 5c0-.402-.312-.827-.69-.939-.297-.089-6.349-.086-6.637.002" fill-rule="evenodd" fill="#000"/></svg>