<svg width="24" height="24" fill="none" xmlns="http://www.w3.org/2000/svg"><path d="M12.506 3.042c-.601.101-1.076.341-1.54.778-.446.421-.694.814-.849 1.346-.073.251-.09.45-.116 1.354-.027.932-.042 1.094-.12 1.34A3.118 3.118 0 0 1 7.86 9.884c-.272.089-.338.092-2.28.116-2.228.028-2.198.024-2.643.312a1.996 1.996 0 0 0-.878 1.237c-.085.402-.085 7.5 0 7.902.078.371.232.641.54.95.309.308.579.462.95.54.334.071 2.466.083 2.834.016.347-.064.706-.251.988-.515l.249-.232.14.095c.471.324 1.154.577 1.76.655.23.03 1.59.04 4.22.032l3.88-.012.27-.105a2.739 2.739 0 0 0 1.05-.697 3.928 3.928 0 0 0 .993-1.818c.034-.143.292-1.41.572-2.817l.51-2.556-.045-.344c-.096-.744-.321-1.194-.87-1.743-.519-.519-.956-.749-1.633-.859-.136-.022-.746-.041-1.357-.041H16V7.89c0-1.218-.018-2.214-.041-2.357-.11-.677-.34-1.114-.859-1.633a3.781 3.781 0 0 0-.62-.511c-.556-.323-1.32-.457-1.974-.347m.991 2.094c.205.12.368.315.446.534.043.119.054.69.055 2.793.002 2.978-.003 2.919.285 3.216.299.307.24.299 2.24.321l1.783.02.197.121c.227.14.438.429.474.648.019.11-.111.827-.475 2.641-.541 2.699-.603 2.921-.909 3.269-.287.326.051.301-4.123.301-4.06 0-3.944.006-4.4-.225-.269-.136-.709-.576-.845-.845-.226-.445-.225-.437-.225-3.35v-2.684l.39-.109c1.299-.362 2.396-1.267 3.047-2.512.401-.769.523-1.339.557-2.615.026-.956.027-.961.137-1.149.124-.211.315-.373.539-.456.227-.085.607-.048.827.081M6 15.5V19H4v-7h2v3.5" fill-rule="evenodd" fill="#000"/></svg>