<svg width="24" height="24" fill="none" xmlns="http://www.w3.org/2000/svg"><path d="M3.076 2.076c-.532.17-.888.581-.992 1.143-.062.332-.062 17.229 0 17.562.089.481.381.868.818 1.083l.238.116h17.72l.238-.116c.437-.215.729-.602.818-1.083.062-.333.062-17.23 0-17.562-.106-.575-.481-.994-1.033-1.155-.196-.058-1.082-.064-8.9-.062-8.228.002-8.695.006-8.907.074M7.45 5.518c.322.159.593.433.743.753.095.203.107.277.107.649s-.012.446-.107.649a1.669 1.669 0 0 1-.746.76c-.228.113-.31.131-.655.145-.468.018-.815-.073-1.122-.296a1.578 1.578 0 0 1-.547-1.746 1.48 1.48 0 0 1 .786-.907c.262-.133.437-.163.872-.15.36.01.428.024.669.143m9.063 4.118c1.269.372 2.044 1.331 2.314 2.866.063.355.071.715.072 3.318l.001 2.92-1.488.01-1.488.011-.014-2.731c-.014-2.471-.022-2.753-.086-2.968-.158-.53-.364-.808-.736-.991-.25-.123-.292-.131-.688-.131-.399 0-.437.007-.7.137-.314.155-.61.429-.742.687-.196.382-.197.403-.198 3.266v2.69h-3v-9h3v1.259l.105-.16c.261-.395.785-.838 1.233-1.043.459-.21.745-.257 1.462-.241.525.012.72.033.953.101M8.08 14.26v4.501l-1.49-.011-1.49-.01-.01-4.49-.01-4.49h3v4.5"/></svg>