<svg width="24" height="24" fill="none" xmlns="http://www.w3.org/2000/svg"><path d="M5.506 3.042c-.646.108-1.099.35-1.606.858-.519.519-.749.956-.859 1.633-.052.321-.052 2.613 0 2.934.11.677.34 1.114.859 1.633.519.519.956.749 1.633.859.338.055 12.596.055 12.934 0 .677-.11 1.114-.34 1.633-.859.519-.519.749-.956.859-1.633.052-.321.052-2.613 0-2.934-.11-.677-.34-1.114-.859-1.633-.519-.519-.956-.749-1.633-.859-.3-.049-12.67-.048-12.961.001M18.33 5.057c.221.079.414.241.539.454l.111.189v2.6l-.111.189a1.038 1.038 0 0 1-.539.454c-.222.079-12.438.079-12.66 0a1.038 1.038 0 0 1-.539-.454L5.02 8.3V5.7l.111-.189c.125-.213.318-.375.539-.454.222-.079 12.438-.079 12.66 0M5.506 13.042c-.646.108-1.099.35-1.606.858-.519.519-.749.956-.859 1.633-.052.321-.052 2.613 0 2.934.11.677.34 1.114.859 1.633.519.519.956.749 1.633.859.338.055 12.596.055 12.934 0 .677-.11 1.114-.34 1.633-.859.519-.519.749-.956.859-1.633.052-.321.052-2.613 0-2.934-.11-.677-.34-1.114-.859-1.633-.519-.519-.956-.749-1.633-.859-.3-.049-12.67-.048-12.961.001m12.824 2.015c.221.079.414.241.539.454l.111.189v2.6l-.111.189a1.038 1.038 0 0 1-.539.454c-.222.079-12.438.079-12.66 0a1.038 1.038 0 0 1-.539-.454L5.02 18.3v-2.6l.111-.189c.125-.213.318-.375.539-.454.222-.079 12.438-.079 12.66 0" fill-rule="evenodd" fill="#000"/></svg>