<svg width="24" height="24" fill="none" xmlns="http://www.w3.org/2000/svg"><path d="M11.16 2.044A8.529 8.529 0 0 0 3.782 8.41a8.756 8.756 0 0 0-.096 3.85c.361 1.751 1.333 3.681 2.736 5.432 1.51 1.885 3.621 3.678 4.886 4.151.693.258 1.262.156 2.161-.39 1.6-.97 3.549-2.878 4.817-4.715 1.236-1.791 1.959-3.567 2.157-5.295.066-.586.028-1.777-.077-2.363-.437-2.451-1.87-4.547-4.006-5.86a8.551 8.551 0 0 0-3.105-1.121c-.5-.077-1.599-.106-2.095-.055m1.561 1.998c1.546.192 2.869.848 3.92 1.943.39.406.637.72.872 1.104a6.595 6.595 0 0 1 .722 5.291c-.399 1.388-1.271 2.938-2.43 4.32-1.163 1.387-2.79 2.817-3.635 3.196-.167.075-.173.075-.34 0-.625-.28-1.96-1.364-2.847-2.311-1.659-1.773-2.728-3.502-3.218-5.205a6.629 6.629 0 0 1-.049-3.486 6.571 6.571 0 0 1 4.271-4.569 6.528 6.528 0 0 1 2.734-.283m-1.307 3.014a3.333 3.333 0 0 0-1.05.369c-.809.425-1.393 1.12-1.693 2.015-.123.368-.127.402-.127 1.06 0 .653.005.695.123 1.047.311.928.91 1.63 1.753 2.054.581.292.918.371 1.58.371s.999-.079 1.58-.371c.843-.424 1.442-1.126 1.753-2.054.118-.352.123-.394.123-1.047 0-.653-.005-.695-.123-1.047-.311-.928-.91-1.63-1.753-2.054a4.472 4.472 0 0 0-.72-.282c-.413-.105-1.07-.132-1.446-.061m1.197 2.075c.271.124.611.451.737.709a1.61 1.61 0 0 1 0 1.318c-.129.26-.466.587-.736.713-.201.095-.282.109-.612.109-.329 0-.411-.014-.611-.108-.271-.127-.612-.457-.737-.712a1.526 1.526 0 0 1 .506-1.899c.415-.287.997-.34 1.453-.13" fill-rule="evenodd" fill="#000"/></svg>