<svg width="24" height="24" fill="none" xmlns="http://www.w3.org/2000/svg"><path d="M5.378 3.058A4.002 4.002 0 0 0 2.058 6.4c-.086.565-.086 10.635 0 11.2a4.004 4.004 0 0 0 3.462 3.361c.226.029 1.13.039 2.7.03l2.36-.014.4-.107a4.055 4.055 0 0 0 2.886-2.89c.09-.347.106-.508.124-1.223.024-1.004-.009-1.17-.293-1.453A1.046 1.046 0 0 0 13 15c-.237 0-.514.12-.697.303-.262.262-.303.436-.303 1.276 0 1-.111 1.34-.596 1.825-.286.286-.552.443-.912.536-.339.089-4.645.089-4.984 0-.36-.093-.626-.25-.912-.536-.286-.286-.443-.552-.536-.912-.09-.344-.09-10.64 0-10.984.093-.36.25-.626.536-.912.286-.286.552-.443.912-.536.339-.089 4.645-.089 4.984 0 .36.093.626.25.912.536.485.485.596.825.596 1.825 0 .84.041 1.014.303 1.276.183.183.46.303.697.303.402 0 .827-.312.939-.69.073-.245.084-1.331.019-1.817A4.007 4.007 0 0 0 10.6 3.058c-.506-.077-4.725-.077-5.222 0m11.295 4.005c-.261.08-.533.358-.612.627-.077.259-.077.363.003.633.061.205.135.287 1.288 1.447L18.576 11h-5.841c-5.112 0-5.866.008-6.045.061-.378.112-.69.537-.69.939 0 .402.312.827.69.939.179.053.933.061 6.045.061h5.841l-1.224 1.23c-1.153 1.16-1.227 1.242-1.288 1.447-.08.27-.08.374-.003.633.083.279.35.546.629.629.258.077.362.077.633-.002.209-.061.294-.141 2.384-2.23 2.089-2.09 2.169-2.175 2.23-2.384.035-.12.063-.265.063-.323 0-.058-.028-.203-.063-.323-.061-.209-.141-.294-2.23-2.384-2.09-2.089-2.175-2.169-2.384-2.23-.262-.076-.403-.076-.65 0" fill-rule="evenodd" fill="#000"/></svg>