<svg width="24" height="24" fill="none" xmlns="http://www.w3.org/2000/svg"><path d="M4.53 3.061c-.352.076-.628.236-.931.538-.308.309-.462.579-.54.95-.084.396-.084 4.506 0 4.902.078.371.232.641.54.95.309.308.579.462.95.54.342.073 4.449.086 4.834.016.768-.141 1.433-.806 1.574-1.574.07-.385.057-4.492-.016-4.834-.078-.371-.232-.641-.54-.95-.309-.308-.579-.462-.95-.54-.383-.081-4.546-.08-4.921.002m10 0c-.352.076-.628.236-.931.538-.308.309-.462.579-.54.95-.084.396-.084 4.506 0 4.902.078.371.232.641.54.95.309.308.579.462.95.54.342.073 4.449.086 4.834.016.768-.141 1.433-.806 1.574-1.574.07-.385.057-4.492-.016-4.834-.078-.371-.232-.641-.54-.95-.309-.308-.579-.462-.95-.54-.383-.081-4.546-.08-4.921.002M9 7v2H5V5h4v2m10 0v2h-4V5h4v2M4.53 13.061c-.352.076-.628.236-.931.538-.308.309-.462.579-.54.95-.084.396-.084 4.506 0 4.902.078.371.232.641.54.95.309.308.579.462.95.54.342.073 4.449.086 4.834.016.768-.141 1.433-.806 1.574-1.574.07-.385.057-4.492-.016-4.834-.078-.371-.232-.641-.54-.95-.309-.308-.579-.462-.95-.54-.383-.081-4.546-.08-4.921.002m10 0c-.352.076-.628.236-.931.538-.308.309-.462.579-.54.95-.084.396-.084 4.506 0 4.902.078.371.232.641.54.95.309.308.579.462.95.54.342.073 4.449.086 4.834.016.768-.141 1.433-.806 1.574-1.574.07-.385.057-4.492-.016-4.834-.078-.371-.232-.641-.54-.95-.309-.308-.579-.462-.95-.54-.383-.081-4.546-.08-4.921.002M9 17v2H5v-4h4v2m10 0v2h-4v-4h4v2" fill-rule="evenodd" fill="#000"/></svg>