<svg width="24" height="24" fill="none" xmlns="http://www.w3.org/2000/svg"><path d="M5.425 2.045c-2.097.27-3.719 1.912-3.983 4.034-.057.462-.057 7.78 0 8.242.223 1.795 1.402 3.252 3.098 3.83.572.195.777.218 2.14.237l1.3.019 1.74 1.732c1.663 1.657 1.75 1.736 1.957 1.797.272.08.374.08.646 0 .207-.061.294-.14 1.957-1.797l1.74-1.732 1.3-.019c1.363-.019 1.568-.042 2.14-.237a4.61 4.61 0 0 0 2.892-2.893c.234-.687.228-.548.228-5.058 0-3.854-.005-4.163-.073-4.478-.205-.952-.61-1.709-1.265-2.364a4.555 4.555 0 0 0-2.721-1.316c-.419-.052-12.688-.049-13.096.003m13.15 2.015c.475.1.837.309 1.247.718.409.41.618.772.718 1.247.087.409.087 7.941 0 8.35-.098.463-.311.838-.699 1.228-.362.364-.619.533-1.041.682-.25.089-.32.093-1.86.114-1.468.019-1.613.027-1.76.098-.102.049-.706.619-1.67 1.578L12 19.578l-1.51-1.503c-.964-.959-1.568-1.529-1.67-1.578-.147-.071-.292-.079-1.76-.098-1.54-.021-1.61-.025-1.86-.114-.423-.149-.679-.317-1.045-.685-.39-.391-.595-.753-.696-1.227-.086-.405-.086-7.941 0-8.346.103-.484.307-.84.717-1.251.404-.404.767-.614 1.233-.715.387-.084 12.769-.085 13.166-.001M6.873 6.863c-.361.111-.673.546-.673.937 0 .402.312.827.69.939.178.053.835.061 5.11.061s4.932-.008 5.11-.061c.378-.112.69-.537.69-.939 0-.402-.312-.827-.69-.939-.299-.089-9.947-.087-10.237.002m0 4.8c-.361.111-.673.546-.673.937 0 .402.312.827.69.939.308.092 7.512.092 7.82 0 .378-.112.69-.537.69-.939 0-.402-.312-.827-.69-.939-.298-.089-7.548-.087-7.837.002" fill-rule="evenodd" fill="#000"/></svg>