<svg width="24" height="24" fill="none" xmlns="http://www.w3.org/2000/svg"><path d="M4.506 4.042c-.646.108-1.099.35-1.606.858-.519.519-.749.956-.859 1.633-.054.332-.054 6.602 0 6.934.11.677.34 1.114.859 1.633.701.702 1.247.899 2.49.9H6v.61c.001 1.243.198 1.789.9 2.49.519.519.956.749 1.633.859.337.055 10.597.055 10.934 0 .677-.11 1.114-.34 1.633-.859.519-.519.749-.956.859-1.633.054-.332.054-6.602 0-6.934-.11-.677-.34-1.114-.859-1.633-.701-.702-1.247-.899-2.49-.9H18v-.61c-.001-1.243-.198-1.789-.9-2.49-.519-.519-.956-.749-1.633-.859-.299-.049-10.671-.048-10.961.001M15.33 6.057c.221.079.414.241.539.454.107.182.111.212.124.839l.014.65h-3.614c-2.222 0-3.708.016-3.86.041-.677.11-1.114.34-1.633.859-.519.519-.749.956-.859 1.633-.022.136-.041.973-.041 1.86v1.614l-.65-.014c-.629-.013-.656-.017-.842-.126a1.075 1.075 0 0 1-.469-.591c-.027-.099-.037-1.271-.03-3.364L4.02 6.7l.111-.189c.125-.213.318-.375.539-.454.222-.079 10.438-.079 10.66 0m4 4c.221.079.414.241.539.454l.111.189v6.6l-.111.189a1.038 1.038 0 0 1-.539.454c-.222.079-10.438.079-10.66 0a1.038 1.038 0 0 1-.539-.454L8.02 17.3v-6.6l.111-.189c.125-.213.318-.375.539-.454.222-.079 10.438-.079 10.66 0m-5.824.985c-.336.056-.717.19-.986.346-.337.196-.936.795-1.131 1.132-.506.871-.506 2.089 0 2.96.195.337.794.936 1.131 1.131.871.506 2.089.506 2.96 0 .337-.195.936-.794 1.131-1.131a3.034 3.034 0 0 0 .36-1.83c-.097-.751-.32-1.2-.871-1.75a3.781 3.781 0 0 0-.62-.511c-.556-.323-1.32-.457-1.974-.347m1.006 2.105c.63.387.642 1.299.023 1.692a.998.998 0 0 1-1.394-.336c-.107-.174-.121-.232-.121-.5 0-.259.016-.33.111-.492a.955.955 0 0 1 .941-.496.836.836 0 0 1 .44.132" fill-rule="evenodd" fill="#000"/></svg>