<svg width="24" height="24" fill="none" xmlns="http://www.w3.org/2000/svg"><path d="M4.53 10.061c-.35.076-.627.236-.933.538a1.847 1.847 0 0 0-.564 1.091c-.1.653.094 1.244.564 1.713a1.956 1.956 0 0 0 2.807.001 1.988 1.988 0 0 0 .389-2.284c-.151-.311-.555-.729-.862-.892-.393-.21-.917-.272-1.401-.167m7 0c-.35.076-.627.236-.933.538a1.847 1.847 0 0 0-.564 1.091c-.1.653.094 1.244.564 1.713a1.956 1.956 0 0 0 2.807.001 1.988 1.988 0 0 0 .389-2.284c-.151-.311-.555-.729-.862-.892-.393-.21-.917-.272-1.401-.167m7 0c-.35.076-.627.236-.933.538a1.847 1.847 0 0 0-.564 1.091c-.1.653.094 1.244.564 1.713a1.956 1.956 0 0 0 2.807.001 1.988 1.988 0 0 0 .389-2.284c-.151-.311-.555-.729-.862-.892-.393-.21-.917-.272-1.401-.167" fill-rule="evenodd" fill="#000"/></svg>