<svg width="24" height="24" fill="none" xmlns="http://www.w3.org/2000/svg"><path d="M10.506 2.042c-.601.101-1.076.341-1.54.778-.32.303-.556.62-.713.963L8.154 4h-.687c-1.327.001-1.853.185-2.567.9-.519.519-.749.956-.859 1.633-.055.338-.055 12.596 0 12.934.11.677.34 1.114.859 1.633.519.519.956.749 1.633.859.337.055 10.597.055 10.934 0 .677-.11 1.114-.34 1.633-.859.519-.519.749-.956.859-1.633.055-.338.055-12.596 0-12.934-.11-.677-.34-1.114-.859-1.633-.714-.715-1.24-.899-2.567-.9h-.687l-.099-.217a3.116 3.116 0 0 0-.713-.963c-.476-.448-.935-.677-1.567-.779-.29-.047-2.678-.046-2.961.001m2.997 2.099a.998.998 0 0 1 0 1.718l-.197.121-1.21.012c-.761.008-1.27-.003-1.368-.03a1.07 1.07 0 0 1-.595-.47c-.097-.165-.113-.235-.113-.492 0-.256.016-.328.111-.489.061-.103.173-.236.25-.294.272-.208.339-.216 1.682-.206l1.243.009.197.121m-5.25 2.076c.331.722 1.081 1.407 1.78 1.624.439.136.716.158 1.967.158 1.251 0 1.528-.022 1.967-.158.7-.218 1.449-.902 1.781-1.627l.101-.22.725.013c.71.013.73.015.915.124.213.125.375.318.454.539.079.222.079 12.438 0 12.66a1.038 1.038 0 0 1-.454.539l-.189.111H6.7l-.192-.113a1.078 1.078 0 0 1-.469-.589c-.026-.099-.036-2.275-.029-6.364L6.02 6.7l.111-.189c.061-.103.173-.236.25-.294.242-.185.387-.213 1.106-.215L8.154 6l.099.217m.42 4.846C8.312 11.174 8 11.609 8 12c0 .402.312.827.69.939.255.076.364.076.613.002.921-.275.921-1.607 0-1.882a.928.928 0 0 0-.63.004m4 0c-.361.111-.673.546-.673.937 0 .237.12.514.303.697.283.283.394.303 1.697.303s1.414-.02 1.697-.303c.183-.183.303-.46.303-.697 0-.402-.312-.827-.69-.939-.287-.086-2.358-.084-2.637.002m-4 4C8.312 15.174 8 15.609 8 16c0 .402.312.827.69.939.255.076.364.076.613.002.921-.275.921-1.607 0-1.882a.928.928 0 0 0-.63.004m4 0c-.361.111-.673.546-.673.937 0 .237.12.514.303.697.283.283.394.303 1.697.303s1.414-.02 1.697-.303c.183-.183.303-.46.303-.697 0-.402-.312-.827-.69-.939-.287-.086-2.358-.084-2.637.002" fill-rule="evenodd" fill="#000"/></svg>