<svg width="24" height="24" fill="none" xmlns="http://www.w3.org/2000/svg"><path d="M5.723 3.047c-.242.069-.442.245-1.529 1.339-.996 1.005-1.069 1.088-1.13 1.291-.08.27-.08.374-.003.633.112.378.537.69.939.69.244 0 .505-.119.752-.343L5 6.433v1.836c0 2.112.002 2.126.303 2.428.183.183.46.303.697.303.402 0 .827-.312.939-.69.091-.307.091-6.313 0-6.62-.146-.491-.709-.789-1.216-.643m4.95 2.016C10.312 5.174 10 5.609 10 6c0 .402.312.827.69.939.178.053.803.061 4.81.061s4.632-.008 4.81-.061c.378-.112.69-.537.69-.939 0-.402-.312-.827-.69-.939-.299-.089-9.348-.087-9.637.002m0 6c-.361.111-.673.546-.673.937 0 .402.312.827.69.939.178.053.803.061 4.81.061s4.632-.008 4.81-.061c.378-.112.69-.537.69-.939 0-.402-.312-.827-.69-.939-.299-.089-9.348-.087-9.637.002m-5.167 1.979c-.336.056-.717.19-.986.346-.337.196-.936.795-1.131 1.132-.289.498-.45 1.265-.355 1.69.189.841 1.251 1.059 1.774.364.105-.138.164-.347.213-.743.031-.252.228-.537.476-.69.174-.107.232-.121.503-.121s.329.014.503.121c.373.229.594.724.434.969-.165.253-.561.609-2.104 1.895-1.726 1.439-1.754 1.467-1.816 1.862-.061.389.168.83.527 1.013l.196.1 2.175.011c2.499.013 2.471.016 2.781-.294C8.88 20.514 9 20.238 9 20c0-.223-.12-.51-.283-.679-.263-.271-.358-.296-1.195-.32l-.738-.021.438-.366c.572-.477 1.244-1.172 1.426-1.474.378-.627.441-1.308.194-2.104-.125-.401-.348-.742-.742-1.136a3.781 3.781 0 0 0-.62-.511c-.556-.323-1.32-.457-1.974-.347m6.167 4.021c-.361.111-.673.546-.673.937 0 .237.12.514.303.697.32.32.056.303 4.697.303s4.377.017 4.697-.303c.183-.183.303-.46.303-.697 0-.402-.312-.827-.69-.939-.299-.089-8.348-.087-8.637.002" fill-rule="evenodd" fill="#000"/></svg>