<svg width="24" height="24" fill="none" xmlns="http://www.w3.org/2000/svg"><path d="M16.435 2.053c-.079.03-.196.092-.26.138-.231.169-14.009 13.993-14.081 14.129-.069.131-.075.294-.085 2.476-.013 2.649-.018 2.597.289 2.904.305.306.253.3 2.879.299 2.248-.001 2.329-.003 2.503-.082.141-.064 1.684-1.588 7.173-7.089 3.846-3.854 7.012-7.042 7.035-7.085a.671.671 0 0 0 .038-.257c-.002-.1.016-.204.04-.233.051-.062.015-.295-.074-.472-.085-.17-4.434-4.524-4.644-4.648-.208-.124-.593-.162-.813-.08M18.18 5.84l1.4 1.4-.71.71-.71.71-1.41-1.41-1.41-1.41.7-.7c.384-.385.708-.7.72-.7.011 0 .65.63 1.42 1.4m-6.39 9.19L6.82 20H4v-2.82l4.97-4.97 4.97-4.97 1.41 1.41 1.41 1.41-4.97 4.97"/></svg>