<svg width="24" height="24" fill="none" xmlns="http://www.w3.org/2000/svg"><path d="M11.433 3.04c-1.006.16-1.945.696-2.547 1.452-1.68 2.112-.855 5.231 1.645 6.225a4.011 4.011 0 0 0 4.907-1.678c1.069-1.799.549-4.159-1.173-5.329a4.749 4.749 0 0 0-1.307-.59c-.386-.094-1.175-.136-1.525-.08m1.229 2.084c.596.222.984.609 1.219 1.216.076.197.093.316.093.66 0 .344-.017.463-.093.66-.195.502-.553.913-.973 1.117-1.113.539-2.34.047-2.789-1.117-.123-.319-.134-.932-.024-1.26a2.059 2.059 0 0 1 1.585-1.375c.217-.042.747.011.982.099M4.503 7.04a3.184 3.184 0 0 0-1.781 1.017 2.986 2.986 0 0 0-.661 2.522c.125.606.391 1.1.825 1.535 1.534 1.534 4.102.993 4.907-1.034a2.988 2.988 0 0 0-.515-3.023 3.366 3.366 0 0 0-1.522-.96c-.265-.073-.986-.106-1.253-.057m14 0a3.184 3.184 0 0 0-1.781 1.017 2.986 2.986 0 0 0-.661 2.522c.125.606.391 1.1.825 1.535 1.534 1.534 4.102.993 4.907-1.034a2.988 2.988 0 0 0-.515-3.023 3.366 3.366 0 0 0-1.522-.96c-.265-.073-.986-.106-1.253-.057M5.34 9.066c.369.126.66.538.66.934 0 .527-.473 1-1 1-.242 0-.521-.119-.701-.299A.984.984 0 0 1 4.3 9.298a.977.977 0 0 1 1.04-.232m14 0c.369.126.66.538.66.934 0 .527-.473 1-1 1-.242 0-.521-.119-.701-.299a.984.984 0 0 1 .001-1.403.977.977 0 0 1 1.04-.232M11.2 12.06c-1.175.162-2.198.625-3.14 1.421-.274.232-.476.448-.92.987l-.08.097-.382-.182c-.577-.273-.976-.358-1.678-.359-.476-.001-.645.016-.94.091-.417.107-.98.361-1.345.607-.772.521-1.397 1.453-1.621 2.418-.065.28-.074.499-.074 1.74v1.42l.111.189c.129.22.306.365.547.45.152.054 1.344.061 10.32.061 11.39 0 10.376.028 10.704-.3.295-.295.307-.374.288-1.95-.015-1.228-.026-1.403-.101-1.69a4.173 4.173 0 0 0-1.058-1.873 3.745 3.745 0 0 0-1.166-.808c-.577-.271-.975-.356-1.665-.355-.702.001-1.101.086-1.678.359l-.382.182-.08-.097c-.601-.729-.95-1.061-1.514-1.441a6.027 6.027 0 0 0-4.146-.967m1.758 2.06a4.051 4.051 0 0 1 2.584 2.04c.105.205.12.299.224 1.38.061.638.111 1.228.112 1.31l.002.15H8.12v-.11c-.002-.379.215-2.451.271-2.59.118-.295.497-.837.785-1.123a4.13 4.13 0 0 1 2.257-1.137c.35-.056 1.139-.014 1.525.08m-7.296 2.004c.252.094.538.257.537.307 0 .016-.038.2-.084.409-.065.297-.088.575-.104 1.27L5.99 19H3v-.573c0-.685.045-.962.212-1.303.274-.56.772-.944 1.408-1.085.256-.057.775-.015 1.042.085m13.985-.009c.494.171.913.543 1.142 1.011.166.339.211.617.211 1.301V19h-2.99l-.021-.89c-.016-.695-.039-.973-.104-1.27a8.143 8.143 0 0 1-.084-.409c-.001-.045.307-.23.494-.297a2.143 2.143 0 0 1 1.352-.019" fill="#25324B" fill-rule="evenodd"/></svg>