<svg width="24" height="24" fill="none" xmlns="http://www.w3.org/2000/svg"><path d="M6.989 2.041c-1.394.221-2.527 1.24-2.87 2.583-.191.747-.131 1.506.182 2.306.024.062-.001.07-.227.071-.346.001-.754.093-1.005.227-.268.143-.698.573-.841.841-.196.366-.227.631-.227 1.931 0 1.624.059 1.858.598 2.403.321.324.657.497 1.091.564l.31.047v3.103c0 1.882.016 3.2.041 3.35.11.677.34 1.114.859 1.633.519.519.956.749 1.633.859.337.055 10.597.055 10.934 0 .677-.11 1.114-.34 1.633-.859.519-.519.749-.956.859-1.633.025-.15.041-1.468.041-3.35v-3.103l.305-.047c.823-.128 1.505-.782 1.652-1.584.024-.136.043-.735.042-1.4 0-1.281-.032-1.55-.227-1.914-.143-.268-.573-.698-.841-.841-.251-.134-.659-.226-1.005-.227-.226-.001-.251-.009-.227-.071.541-1.382.31-2.766-.634-3.799-.904-.989-2.305-1.354-3.701-.966-1.191.332-2.382 1.336-3.15 2.658-.107.184-.203.334-.214.334-.011 0-.107-.15-.214-.334-.796-1.37-1.993-2.357-3.259-2.685-.43-.112-1.156-.158-1.538-.097m1.265 2.094c.582.222 1.204.769 1.681 1.479.193.288.704 1.272.705 1.358 0 .017-.787.026-1.75.02L7.14 6.98l-.26-.124a1.522 1.522 0 0 1-.736-.736c-.11-.231-.124-.3-.124-.62s.014-.389.124-.62c.194-.407.505-.676.956-.826.255-.086.823-.046 1.154.081m8.867.012c.33.157.577.403.735.733.11.231.124.3.124.62s-.014.389-.124.62c-.157.33-.406.579-.736.736l-.26.124-1.75.012c-.962.006-1.75-.003-1.75-.02.001-.086.512-1.07.705-1.358.427-.635 1.079-1.238 1.553-1.436.314-.131.565-.177.903-.166.283.01.384.033.6.135M11 10v1H4V9h7v1m9 0v1h-7V9h7v1m-9 6.501v3.502l-2.15-.012-2.15-.011-.189-.111a1.038 1.038 0 0 1-.454-.539c-.043-.12-.054-.763-.055-3.24L6 13h5v3.501m6.998-.411c-.001 2.477-.012 3.12-.055 3.24a1.038 1.038 0 0 1-.454.539l-.189.111-2.15.011-2.15.012V13h5l-.002 3.09" fill-rule="evenodd" fill="#000"/></svg>