<svg width="24" height="24" fill="none" xmlns="http://www.w3.org/2000/svg"><path d="M7.53 3.061c-.137.03-.344.104-.46.166-.269.143-.699.573-.842.842-.236.442-.227.103-.227 7.931s-.009 7.489.227 7.931c.143.268.573.698.841.841.428.229.379.227 4.914.227 2.82.001 4.239-.013 4.4-.042.768-.141 1.433-.806 1.574-1.574.03-.165.043-2.426.042-7.4 0-7.809.009-7.472-.227-7.914-.143-.268-.573-.698-.841-.841-.429-.229-.373-.227-4.951-.224-3.381.002-4.249.013-4.45.057M10 5.053c0 .187.137.478.303.644.283.283.394.303 1.697.303s1.414-.02 1.697-.303c.166-.166.303-.457.303-.644C14 5.01 14.199 5 15 5h1v14H8V5h1c.801 0 1 .01 1 .053m1.673 11.01c-.261.08-.533.358-.612.627-.077.258-.077.409 0 .635.308.903 1.609.888 1.88-.022.074-.249.074-.358-.002-.613a1.004 1.004 0 0 0-.629-.629.936.936 0 0 0-.637.002" fill-rule="evenodd" fill="#000"/></svg>