<svg width="24" height="24" fill="none" xmlns="http://www.w3.org/2000/svg"><path d="M14.24 3.035a1.108 1.108 0 0 0-.665.591c-.067.159-.072.554-.01.732l.046.131-1.573 1.573-1.573 1.574-2.003.749-2.002.749-.871.862c-.979.969-1.07 1.096-1.068 1.502.001.433.029.467 1.61 2.052L7.578 15l-1.964 1.97c-2.183 2.19-2.119 2.11-2.087 2.604.032.509.39.867.899.899.494.032.414.096 2.604-2.087L9 16.422l1.45 1.447c1.585 1.581 1.619 1.609 2.052 1.61.407.002.535-.089 1.503-1.069l.86-.87.75-2.002.749-2.003 1.574-1.573 1.573-1.573.131.046c.16.055.489.058.681.005.188-.052.458-.288.567-.494.122-.231.123-.661.001-.886-.109-.203-5.78-5.867-5.967-5.961-.156-.077-.535-.113-.684-.064m2.32 4.425 1.539 1.539-1.742 1.751-1.742 1.75-.733 1.967-.733 1.966-.325.323-.325.323-2.79-2.79-2.79-2.79.331-.327.33-.327 1.96-.73 1.96-.73 1.74-1.732C14.197 6.7 14.989 5.92 15 5.92c.011 0 .713.693 1.56 1.54" fill-rule="evenodd" fill="#000"/></svg>