<svg width="24" height="24" fill="none" xmlns="http://www.w3.org/2000/svg"><path d="M11.664 4.063a1.005 1.005 0 0 0-.533.448l-.111.189-.011 3.15-.011 3.15H7.946c-3.46 0-3.338-.01-3.647.299A1.084 1.084 0 0 0 4 12c0 .237.12.514.303.697.315.314.178.303 3.644.303H11v3.07c0 1.991.015 3.122.042 3.219.061.22.273.473.489.585a.987.987 0 0 0 1.169-.172c.312-.312.3-.165.3-3.629V13h3.053c3.466 0 3.329.011 3.644-.303.183-.183.303-.46.303-.697 0-.237-.12-.514-.303-.697-.315-.314-.178-.303-3.644-.303H13V7.927c0-3.463.012-3.317-.299-3.628a.996.996 0 0 0-1.037-.236" fill="#25324B" fill-rule="evenodd"/></svg>