<svg width="24" height="24" fill="none" xmlns="http://www.w3.org/2000/svg"><path d="M4.506 2.042c-.646.108-1.099.35-1.606.858-.519.519-.749.956-.859 1.633-.055.337-.055 10.597 0 10.934.11.677.34 1.114.859 1.633.519.519.956.749 1.633.859.139.023 1.051.041 2.092.041H8.47l-.181.73-.181.73-.491.506c-.424.436-.5.535-.554.717-.078.263-.079.369-.003.625.069.233.282.474.522.594.154.076.277.078 4.335.089 4.731.012 4.457.029 4.78-.294a.982.982 0 0 0 .195-1.13c-.037-.081-.278-.363-.534-.627l-.466-.48-.181-.73-.181-.73h1.845c1.041 0 1.953-.018 2.092-.041.677-.11 1.114-.34 1.633-.859.519-.519.749-.956.859-1.633.055-.337.055-10.597 0-10.934-.11-.677-.34-1.114-.859-1.633-.519-.519-.956-.749-1.633-.859-.3-.049-14.67-.048-14.961.001M19.33 4.057c.221.079.414.241.539.454l.111.189.011 3.65.011 3.65H3.998l.011-3.65.011-3.65.111-.189c.125-.213.318-.375.539-.454.223-.079 14.437-.079 14.66 0m.663 10.593c-.013.627-.017.657-.124.839a1.038 1.038 0 0 1-.539.454c-.223.079-14.437.079-14.66 0a1.038 1.038 0 0 1-.539-.454c-.107-.182-.111-.212-.124-.839L3.993 14h16.014l-.014.65m-6.278 4.329c.135.539.245.989.245 1 0 .012-.882.021-1.96.021-1.078 0-1.96-.009-1.96-.021 0-.011.11-.461.245-1L10.53 18h2.94l.245.979" fill-rule="evenodd" fill="#000"/></svg>