<svg width="24" height="24" fill="none" xmlns="http://www.w3.org/2000/svg"><path d="M10.8 1.827a9.99 9.99 0 0 0-5.975 2.771 9.961 9.961 0 0 0-2.91 5.542c-.106.62-.145 1.971-.077 2.644a9.924 9.924 0 0 0 2.161 5.25 10.017 10.017 0 0 0 6.421 3.621c1.9.26 3.83-.033 5.592-.849a11.632 11.632 0 0 0 1.538-.902c.138-.101.264-.184.28-.184.017 0 .723.694 1.57 1.543.857.858 1.611 1.581 1.7 1.629.223.12.656.12.88 0 .206-.109.399-.312.478-.501.086-.206.079-.612-.015-.811-.049-.106-.598-.681-1.614-1.695l-1.539-1.534.325-.417a9.988 9.988 0 0 0 1.883-8.389c-.319-1.419-1.049-2.919-1.99-4.085a11.5 11.5 0 0 0-1.469-1.457 10.022 10.022 0 0 0-5.207-2.162c-.359-.038-1.707-.047-2.032-.014m2.135 2.035a7.847 7.847 0 0 1 2.405.766c3.906 1.949 5.517 6.675 3.617 10.612a7.983 7.983 0 0 1-1.755 2.371 7.966 7.966 0 0 1-8.459 1.547A7.989 7.989 0 0 1 4.082 9.58c.817-2.912 3.314-5.166 6.294-5.683a8.412 8.412 0 0 1 2.559-.035" fill-rule="evenodd" fill="#000"/></svg>