<svg width="24" height="24" fill="none" xmlns="http://www.w3.org/2000/svg"><path d="M3.877 3.055c-.709.191-1.228.939-1.135 1.638.015.105.572 1.829 1.239 3.83l1.212 3.637-1.212 3.637c-.667 2.001-1.224 3.725-1.239 3.83-.032.245.031.575.161.843.296.605 1.05.964 1.702.809.155-.037 14.739-6.843 17.48-8.157.479-.23.687-.52.692-.962a.767.767 0 0 0-.116-.474 1.041 1.041 0 0 0-.279-.323c-.233-.157-17.483-8.244-17.722-8.309a1.585 1.585 0 0 0-.783.001m8.413 5.747c3.911 1.835 7.11 3.345 7.11 3.358 0 .023-14.333 6.759-14.349 6.744-.005-.005.424-1.308.953-2.897l.963-2.887h.266c.839.002 4.855-.129 5-.163a.977.977 0 0 0 .466-1.651c-.324-.324-.258-.318-2.725-.249-1.185.034-2.351.066-2.591.071l-.437.011-.933-2.8-.957-2.872c-.019-.061-.011-.067.05-.037.041.021 3.274 1.538 7.184 3.372" fill-rule="evenodd" fill="#000"/></svg>