<svg width="24" height="24" fill="none" xmlns="http://www.w3.org/2000/svg"><path d="M11.7 2.023a2.828 2.828 0 0 0-1.291.491c-.473.321-.813.807-1.026 1.469-.114.352-.225.492-.472.595-.232.097-.386.076-.724-.097-.642-.328-1.226-.425-1.828-.303A2.762 2.762 0 0 0 4.402 5.7c-.208.433-.262.681-.259 1.2.002.373.019.489.112.76.061.176.164.412.228.525.161.282.188.513.086.743-.101.228-.274.358-.629.47-.756.239-1.306.699-1.628 1.362-.233.478-.287.714-.287 1.24 0 .469.053.743.216 1.105.335.748.897 1.243 1.699 1.497.355.112.528.242.629.47.103.233.079.421-.101.764-.312.594-.411 1.211-.29 1.805a2.77 2.77 0 0 0 2.202 2.181c.597.112 1.135.028 1.71-.265.398-.202.598-.233.838-.126.228.101.358.274.47.629.254.802.749 1.364 1.497 1.699.362.163.636.216 1.105.216s.743-.053 1.105-.216c.748-.335 1.243-.897 1.497-1.699.112-.355.242-.528.47-.629.237-.105.41-.08.821.123.62.305 1.156.388 1.749.269 1.601-.321 2.601-1.986 2.096-3.492a3.578 3.578 0 0 0-.221-.516c-.161-.282-.188-.513-.086-.743.101-.228.274-.358.629-.47.953-.302 1.636-1.021 1.862-1.962.068-.283.068-.997 0-1.28-.226-.941-.909-1.66-1.862-1.962-.355-.112-.528-.242-.629-.47-.105-.236-.075-.455.105-.781a2.42 2.42 0 0 0 .323-1.267c-.001-.502-.056-.753-.261-1.18a2.762 2.762 0 0 0-1.957-1.522c-.579-.117-1.157-.029-1.735.265-.399.203-.594.233-.834.126-.228-.101-.358-.274-.47-.629-.194-.612-.548-1.112-1.011-1.426a3.204 3.204 0 0 0-.911-.426c-.205-.049-.801-.089-.98-.065m.567 2.019c.214.081.369.277.458.577.364 1.221 1.377 1.995 2.615 1.997.498.001.727-.054 1.263-.301.233-.107.479-.195.548-.195.365 0 .729.362.729.725 0 .071-.088.319-.195.552-.248.538-.302.767-.299 1.263.007 1.245.775 2.252 1.995 2.615.416.123.619.362.619.725s-.203.602-.619.725c-.78.232-1.371.718-1.719 1.412-.196.392-.274.729-.278 1.203-.004.492.051.72.301 1.263.107.233.195.481.195.552 0 .363-.364.725-.729.725-.069 0-.315-.088-.548-.195-.537-.248-.766-.302-1.263-.3-1.244.005-2.251.774-2.615 1.996-.123.416-.362.619-.725.619s-.602-.203-.725-.619c-.364-1.221-1.373-1.992-2.615-1.998-.493-.002-.722.053-1.263.302-.233.107-.479.195-.548.195-.365 0-.729-.362-.729-.725 0-.071.088-.319.195-.552.248-.538.302-.767.299-1.263-.007-1.245-.775-2.252-1.995-2.615C4.203 12.602 4 12.363 4 12s.203-.602.619-.725c.78-.232 1.371-.718 1.719-1.412.198-.395.275-.729.277-1.203.002-.496-.052-.726-.3-1.263-.107-.233-.195-.481-.195-.552 0-.363.364-.725.729-.725.069 0 .315.088.548.195.536.247.765.302 1.263.301 1.238-.002 2.251-.776 2.615-1.997.087-.294.242-.494.445-.574a.96.96 0 0 1 .547-.003m-.889 4.016c-2.084.324-3.585 2.285-3.343 4.367.217 1.867 1.63 3.294 3.505 3.538 1.003.131 2.139-.2 2.97-.865 1.036-.829 1.622-2.263 1.453-3.558-.295-2.271-2.347-3.83-4.585-3.482m1.114 2.002c.126.032.323.107.438.165.269.136.709.576.845.845a2.047 2.047 0 0 1 0 1.86c-.136.269-.576.709-.845.845a2.047 2.047 0 0 1-1.86 0c-.269-.136-.709-.576-.845-.845a2.047 2.047 0 0 1 0-1.86c.137-.27.576-.709.846-.845a2.078 2.078 0 0 1 1.421-.165" fill-rule="evenodd" fill="#000"/></svg>