<svg width="24" height="24" fill="none" xmlns="http://www.w3.org/2000/svg"><path d="M17.378 2.058a4.017 4.017 0 0 0-2.915 2.102c-.363.706-.52 1.524-.431 2.243.041.328.039.383-.014.423-.034.025-1.167.615-2.519 1.311L9.042 9.402l-.147-.163c-.214-.236-.74-.62-1.091-.797a3.998 3.998 0 0 0-5.618 2.383c-.569 1.817.278 3.84 1.974 4.712a3.981 3.981 0 0 0 3.644.021c.36-.181.897-.576 1.091-.803l.138-.162 2.462 1.268c1.354.697 2.489 1.288 2.523 1.313.053.04.055.095.014.423-.157 1.268.436 2.696 1.458 3.504 2.49 1.97 6.109.474 6.475-2.676.187-1.605-.678-3.218-2.125-3.962a3.981 3.981 0 0 0-3.644-.021c-.351.177-.877.561-1.091.797l-.147.163-2.509-1.294-2.509-1.294.02-.237a8.524 8.524 0 0 0 0-1.155l-.02-.237 2.509-1.294 2.509-1.294.147.163c.214.237.74.621 1.091.798a3.981 3.981 0 0 0 3.644-.021c1.447-.744 2.312-2.357 2.125-3.962-.265-2.284-2.331-3.868-4.587-3.517m1.114 2.002c.36.093.626.25.912.536.403.403.596.858.596 1.404 0 .546-.193 1.001-.596 1.404C19.001 7.807 18.546 8 18 8c-.546 0-1.001-.193-1.404-.596C16.193 7.001 16 6.546 16 6c0-.546.193-1.001.596-1.404.404-.405.833-.588 1.386-.593a2.32 2.32 0 0 1 .51.057m-12 6c.36.093.626.25.912.536.286.286.443.552.536.912a2.07 2.07 0 0 1-.165 1.422c-.136.269-.576.709-.845.845a2.047 2.047 0 0 1-1.86 0c-.269-.136-.709-.576-.845-.845a2.047 2.047 0 0 1 0-1.86c.137-.27.576-.709.846-.845a2.078 2.078 0 0 1 1.421-.165m12 6c.36.093.626.25.912.536.403.403.596.858.596 1.404 0 .546-.193 1.001-.596 1.404-.403.403-.858.596-1.404.596-.546 0-1.001-.193-1.404-.596C16.193 19.001 16 18.546 16 18c0-.546.193-1.001.596-1.404.404-.405.833-.588 1.386-.593a2.32 2.32 0 0 1 .51.057" fill-rule="evenodd" fill="#000"/></svg>