<svg width="24" height="24" fill="none" xmlns="http://www.w3.org/2000/svg"><path d="M11.1 2.041c-2.094.212-3.908.969-5.528 2.307C4.093 5.57 2.907 7.399 2.386 9.26c-.266.949-.363 1.684-.363 2.74 0 1.056.097 1.791.363 2.74.521 1.861 1.707 3.69 3.186 4.912 1.48 1.223 3.077 1.941 4.968 2.235.744.115 2.083.124 2.8.019 3.557-.524 6.437-2.716 7.845-5.969.549-1.267.791-2.474.791-3.937 0-.888-.054-1.429-.217-2.162-.654-2.948-2.645-5.484-5.335-6.795a9.836 9.836 0 0 0-3.184-.963c-.465-.061-1.701-.083-2.14-.039m1.732 2.001c1.186.13 2.412.55 3.405 1.17a8.48 8.48 0 0 1 2.419 2.348c1.875 2.811 1.773 6.51-.254 9.239-.471.635-1.287 1.407-1.962 1.857a8.043 8.043 0 0 1-8.88 0c-.675-.45-1.491-1.222-1.962-1.857-1.975-2.658-2.128-6.189-.393-9.028.387-.632 1.083-1.424 1.714-1.95 1.137-.947 2.7-1.608 4.201-1.777a10.09 10.09 0 0 1 1.712-.002M8.673 9.063C8.312 9.174 8 9.609 8 10c0 .402.312.827.69.939.255.076.364.076.613.002.921-.275.921-1.607 0-1.882a.928.928 0 0 0-.63.004m6 0c-.361.111-.673.546-.673.937 0 .402.312.827.69.939.255.076.364.076.613.002.922-.275.922-1.607 0-1.882a.928.928 0 0 0-.63.004M9.24 14.035a1.04 1.04 0 0 0-.479.31.85.85 0 0 0-.241.624c.001.376.061.504.394.831 1.679 1.65 4.493 1.65 6.172 0 .333-.327.393-.455.394-.831a.85.85 0 0 0-.241-.624c-.205-.233-.41-.323-.739-.323-.335 0-.442.05-.837.39-.306.263-.789.512-1.135.584a3.252 3.252 0 0 1-1.056 0c-.346-.072-.829-.321-1.135-.584a3.104 3.104 0 0 0-.415-.311c-.153-.079-.531-.116-.682-.066" fill-rule="evenodd" fill="#000"/></svg>