<svg width="24" height="24" fill="none" xmlns="http://www.w3.org/2000/svg"><path d="M9.03 5.27C7.407 6.893 6.08 8.238 6.08 8.26c0 .023.387.427.86.9l.86.86 2.1-2.1 2.1-2.1 2.1 2.1 2.1 2.1.86-.86c.473-.473.86-.878.86-.9 0-.039-5.881-5.94-5.92-5.94-.011 0-1.348 1.328-2.97 2.95m-2.1 9.58c-.468.468-.85.869-.85.89 0 .022 1.332 1.372 2.96 3L12 21.7l2.96-2.96c1.628-1.628 2.96-2.978 2.96-3 0-.022-.387-.427-.86-.9l-.86-.86-2.1 2.1-2.1 2.1-2.09-2.09C8.76 14.94 7.811 14 7.8 14c-.012 0-.403.383-.87.85" fill="#25324B" fill-rule="evenodd"/></svg>