<svg width="24" height="24" fill="none" xmlns="http://www.w3.org/2000/svg"><path d="M17.665 2.066c-.156.047-.278.139-.6.451-.608.587-1.166.948-2.078 1.342-1.122.485-2.63.869-4.007 1.02-.22.024-.463.053-.54.065-.077.012-1.04.037-2.14.055-2.139.036-2.227.044-2.9.266-1.162.384-2.286 1.347-2.831 2.427-.394.78-.547 1.446-.544 2.368.003.845.133 1.414.485 2.12.461.925 1.067 1.57 2.066 2.2.037.024.49 1.263 1.098 3.006.649 1.86 1.092 3.069 1.187 3.24.186.336.627.779.98.985.441.257.825.36 1.359.364.546.004.833-.061 1.305-.297.658-.329 1.18-.964 1.399-1.7.063-.212.072-.48.086-2.468.013-2.027.02-2.23.079-2.23.158 0 1.363.305 1.891.478 1.421.468 2.325.965 3.06 1.684.198.193.433.389.521.435a.975.975 0 0 0 1.155-.18c.298-.298.304-.338.304-2.217v-1.625l.21-.054c.326-.083.943-.417 1.302-.704 1.034-.828 1.62-2.263 1.451-3.557-.2-1.541-1.243-2.834-2.672-3.316l-.271-.091L19 4.436l-.02-1.696-.099-.194a1.017 1.017 0 0 0-.562-.486c-.209-.074-.401-.072-.654.006M17 9.998v4.919l-.452-.238c-1.078-.566-2.444-1.03-3.828-1.299l-.63-.123-.09-.019V6.762l.09-.019.63-.123c1.393-.271 2.84-.765 3.86-1.318.22-.119.405-.218.41-.219.005-.002.01 2.21.01 4.915m-7-.008v3.03l-1.63-.011c-1.749-.012-2.027-.038-2.498-.229-.818-.332-1.434-.999-1.738-1.88-.099-.287-.111-.375-.111-.86-.001-.622.053-.876.296-1.38.337-.699 1.03-1.286 1.821-1.545.267-.087.356-.092 1.9-.115.891-.013 1.696-.027 1.79-.032L10 6.96v3.03m9.376-1.42c.313.309.467.566.564.938.119.454.057.983-.165 1.423-.101.2-.649.789-.734.789-.027 0-.041-.578-.041-1.72s.014-1.72.041-1.72c.022 0 .173.13.335.29M9.85 15.026l.15.024v2.17c0 2.386.006 2.328-.247 2.565-.236.221-.559.275-.825.139-.278-.144-.346-.259-.642-1.104a600.163 600.163 0 0 1-1.326-3.808c0-.024 2.743-.011 2.89.014" fill-rule="evenodd" fill="#000"/></svg>