<svg width="24" height="24" fill="none" xmlns="http://www.w3.org/2000/svg"><path d="M11.676 1.06c-.405.13-.383.092-1.977 3.32L8.237 7.34l-3.208.467c-1.765.257-3.273.486-3.351.509-.189.057-.461.294-.568.498-.122.233-.122.62.002.871.069.141.659.739 2.449 2.479 1.298 1.261 2.359 2.309 2.359 2.329 0 .02-.243 1.453-.54 3.184-.297 1.732-.54 3.237-.54 3.346.001.555.533 1.029 1.082.964.23-.027.136.02 3.428-1.712l2.649-1.394 2.884 1.521c1.716.905 2.964 1.539 3.081 1.566.573.133 1.196-.356 1.196-.937 0-.066-.243-1.537-.54-3.268-.297-1.732-.54-3.186-.54-3.232 0-.058.712-.776 2.33-2.349 2.543-2.473 2.555-2.486 2.558-2.911.004-.402-.204-.728-.588-.922-.072-.036-1.433-.251-3.36-.529-1.782-.258-3.252-.48-3.268-.494-.015-.014-.665-1.318-1.445-2.897-.779-1.579-1.462-2.938-1.517-3.02-.207-.313-.723-.475-1.114-.349m1.456 5.51c1.196 2.418 1.228 2.471 1.565 2.611.068.028 1.212.207 2.543.397 1.331.191 2.452.36 2.491.375.056.021-.306.394-1.756 1.805-2.006 1.953-1.994 1.938-1.983 2.382.003.132.192 1.311.42 2.62.228 1.309.412 2.384.409 2.389-.003.005-1.022-.526-2.264-1.18L12.3 16.78h-.6l-2.259 1.187a132.096 132.096 0 0 1-2.268 1.179c-.005-.005.179-1.106.409-2.448.23-1.341.418-2.52.418-2.62 0-.374-.067-.451-2.004-2.337-1.497-1.456-1.793-1.762-1.731-1.787.041-.016 1.155-.185 2.475-.375 2.6-.374 2.685-.394 2.912-.663.07-.083.623-1.16 1.228-2.393a168.972 168.972 0 0 1 1.11-2.242c.005-.001.519 1.029 1.142 2.289" fill="#25324B" fill-rule="evenodd"/></svg>