<svg width="24" height="24" fill="none" xmlns="http://www.w3.org/2000/svg"><path d="M11.7 1.676a.899.899 0 0 0-.247.169c-.048.052-.697 1.328-1.443 2.835L8.655 7.42l-3.018.435c-2.084.301-3.06.457-3.157.506a.725.725 0 0 0-.31.993c.056.103.86.915 2.13 2.149l2.173 2.114.133.13-.522 3.038c-.456 2.652-.516 3.059-.479 3.197.119.439.57.681.978.525a180.32 180.32 0 0 0 2.77-1.44L12 17.675l2.647 1.392c1.456.766 2.717 1.417 2.803 1.447.461.161.962-.21.958-.71-.001-.101-.23-1.505-.508-3.12l-.506-2.937.133-.13 2.193-2.134c1.368-1.331 2.083-2.054 2.129-2.153a.765.765 0 0 0-.004-.63.608.608 0 0 0-.368-.356c-.078-.032-1.489-.253-3.136-.491l-2.996-.433-1.367-2.76c-.752-1.518-1.41-2.8-1.463-2.848a.735.735 0 0 0-.815-.136" fill="#25324B" fill-rule="evenodd"/></svg>