<svg width="24" height="24" fill="none" xmlns="http://www.w3.org/2000/svg"><path d="M6.58 2.023c-.566.079-.77.121-1.1.226a5.017 5.017 0 0 0-3.388 3.829c-.09.46-.09 1.384 0 1.844a5.052 5.052 0 0 0 2.729 3.57c.311.155.937.358 1.339.433.335.063 1.345.063 1.68 0 1.872-.352 3.376-1.668 3.914-3.426.181-.59.22-.857.22-1.499 0-.642-.039-.909-.22-1.499-.528-1.725-2.027-3.063-3.809-3.402-.325-.061-1.143-.107-1.365-.076m-.494 5.381c.036.08.133.212.215.295.282.281.264.279 1.992.301l1.552.02-.161.32A3.107 3.107 0 0 1 7.84 9.886c-.436.135-1.248.135-1.68 0A3.086 3.086 0 0 1 4.114 7.84c-.079-.252-.094-.386-.094-.84 0-.454.015-.588.094-.84A3.108 3.108 0 0 1 5.66 4.316l.32-.161L6 5.707c.017 1.324.03 1.574.086 1.697m2.353-3.041c.55.294 1.141.959 1.358 1.528L9.838 6H8V4.162l.109.041c.06.023.208.095.33.16m12.234 6.7c-.261.08-.533.358-.612.627-.053.178-.061.803-.061 4.81s.008 4.632.061 4.81c.112.378.537.69.939.69.402 0 .827-.312.939-.69.053-.178.061-.803.061-4.81 0-5.199.019-4.875-.303-5.197-.279-.279-.63-.361-1.024-.24m-8 1c-.261.08-.533.358-.612.627-.092.308-.092 8.312 0 8.62.112.378.537.69.939.69.237 0 .514-.12.697-.303.32-.32.303-.056.303-4.697s.017-4.377-.303-4.697c-.279-.279-.63-.361-1.024-.24m4 1c-.261.08-.533.358-.612.627-.092.308-.092 7.312 0 7.62.112.378.537.69.939.69.237 0 .514-.12.697-.303.318-.318.303-.114.303-4.197s.015-3.879-.303-4.197c-.279-.279-.63-.361-1.024-.24m-8 3a.93.93 0 0 0-.369.24C7.998 16.609 8 16.588 8 19c0 2.411-.002 2.391.303 2.697.183.183.46.303.697.303.237 0 .514-.12.697-.303.305-.306.303-.286.303-2.697s.002-2.391-.303-2.697c-.279-.279-.63-.361-1.024-.24" fill-rule="evenodd" fill="#000"/></svg>