<svg width="24" height="24" fill="none" xmlns="http://www.w3.org/2000/svg"><path d="M11.67 3.066a1.167 1.167 0 0 0-.33.19c-.102.09-1.381 2.329-4.685 8.204-2.5 4.444-4.571 8.161-4.603 8.26-.17.53.176 1.12.728 1.241.139.031 1.159.04 3.34.032l3.14-.013.176-.094c.096-.051.226-.149.288-.217.062-.068.595-.849 1.185-1.735.589-.887 1.08-1.612 1.091-1.612.011 0 .502.725 1.091 1.612.59.886 1.123 1.667 1.185 1.735.062.068.192.166.288.217l.176.094 3.176.011c3.613.013 3.462.025 3.78-.294a.948.948 0 0 0 .26-.954c-.046-.164-8.954-16.036-9.171-16.338-.236-.331-.717-.477-1.115-.339m3.969 9.444 3.63 6.46c.009.016-.828.03-1.86.03h-1.876l-1.153-1.73c-.634-.951-1.153-1.748-1.153-1.77 0-.022.155-.274.344-.561.404-.61.468-.793.398-1.126-.116-.552-.621-.894-1.156-.782-.284.06-.49.201-.661.452a1 1 0 0 1-.152.195 1 1 0 0 1-.152-.195c-.52-.767-1.629-.566-1.817.33-.07.333-.006.516.398 1.126.189.287.344.539.344.561 0 .022-.519.819-1.153 1.77L8.467 19H6.591c-1.032 0-1.869-.014-1.86-.03.222-.424 7.252-12.89 7.269-12.89.014 0 1.651 2.893 3.639 6.43" fill-rule="evenodd" fill="#000"/></svg>