<svg width="24" height="24" fill="none" xmlns="http://www.w3.org/2000/svg"><path d="M9.506 1.042c-.646.108-1.099.35-1.606.858-.702.701-.899 1.247-.9 2.49V5H5.89c-.61 0-1.221.019-1.357.041-.677.11-1.114.34-1.633.859-.519.519-.749.956-.859 1.633-.055.337-.055 10.597 0 10.934.11.677.34 1.114.859 1.633.519.519.956.749 1.633.859.338.055 14.596.055 14.934 0 .677-.11 1.114-.34 1.633-.859.519-.519.749-.956.859-1.633.055-.337.055-10.597 0-10.934-.11-.677-.34-1.114-.859-1.633-.519-.519-.956-.749-1.633-.859C19.331 5.019 18.721 5 18.11 5H17v-.61c-.001-1.243-.198-1.789-.9-2.49-.519-.519-.956-.749-1.633-.859-.295-.048-4.674-.047-4.961.001m4.824 2.015c.221.079.414.241.539.454.107.182.111.212.124.839l.014.65H8.993l.014-.65c.013-.627.017-.657.124-.839.125-.213.318-.375.539-.454.219-.078 4.441-.078 4.66 0m5 4c.221.079.414.241.539.454l.111.189v4.879l-.62.213c-4.682 1.607-10.038 1.607-14.72 0l-.62-.213V7.7l.111-.189c.125-.213.318-.375.539-.454.223-.079 14.437-.079 14.66 0m-7.657 4.006c-.361.111-.673.546-.673.937 0 .517.483 1 1 1 .058 0 .194-.026.303-.059.921-.275.921-1.607 0-1.882a.928.928 0 0 0-.63.004M5.36 15.096c1.478.415 3.04.686 4.78.83.742.061 2.967.061 3.72 0a25.44 25.44 0 0 0 5.772-1.12l.371-.118-.011 1.806-.012 1.806-.111.189a1.038 1.038 0 0 1-.539.454c-.223.079-14.437.079-14.66 0a1.038 1.038 0 0 1-.539-.454L4.02 18.3l-.012-1.806-.011-1.807.371.118c.205.065.651.196.992.291" fill-rule="evenodd" fill="#000"/></svg>