<svg xmlns="http://www.w3.org/2000/svg" width="512" height="512" fill-rule="evenodd" clip-rule="evenodd" image-rendering="optimizeQuality" shape-rendering="geometricPrecision" text-rendering="geometricPrecision"><path d="M267.719 177.28c-.265 162.046-.414 178.05-1.743 186.24-2.033 12.532-3.364 16.563-7.891 23.893-11.778 19.073-28.09 30.3-49.608 34.146-8.392 1.499-25.331.667-33.117-1.628-3.285-.968-9.62-3.56-14.078-5.761-6.729-3.322-9.341-5.244-15.39-11.325-8.557-8.602-12.438-15.635-15.877-28.768-2.98-11.38-3.151-28.731-.387-39.144 6.905-26.01 24.386-43.241 51.279-50.546 4.446-1.208 8.974-1.507 22.827-1.507h17.28v-46.6l-.001-46.599-8.564-.974c-32.026-3.642-63.119 1.687-89.569 15.349-45.126 23.31-76.198 69.388-84.052 124.645-1.676 11.788-1.649 35.936.052 47.509 7.948 54.071 39.036 96.292 88.277 119.893 19.043 9.127 30.948 12.458 54.103 15.14 12.065 1.397 36.009.522 48.226-1.762 64.302-12.023 109.507-59.756 121.258-128.041 2.937-17.061 3.364-32.422 3.377-121.404l.012-86.844 6.743 5.142c26.209 19.991 67.512 34.15 107.817 36.961l5.76.402v-87.402l-9.521-1.088c-29.358-3.352-53.312-13.927-71.986-31.779-16.179-15.467-28.801-38.324-34.61-62.674-1.927-8.076-4.165-23.115-4.187-28.139l-.016-3.491-16.777-.562C328.129.253 308.75 0 294.293 0h-26.285l-.289 177.28"/></svg>