<svg width="24" height="24" fill="none" xmlns="http://www.w3.org/2000/svg"><path d="M9.673 4.063a.93.93 0 0 0-.369.24C9.052 4.554 9 4.75 9 5.447V6H6.947c-2.352 0-2.339-.002-2.644.303C4.12 6.486 4 6.763 4 7c0 .237.12.514.303.697.305.304.294.303 2.627.303h2.036l-.026.23c-.113 1.007-.384 2.069-.74 2.898-.168.392-.558 1.112-.601 1.112-.056 0-.357-.425-.459-.648a2.035 2.035 0 0 1-.139-.545c-.046-.404-.112-.56-.322-.764A1.085 1.085 0 0 0 6 10c-.402 0-.827.312-.939.69-.077.258-.077.449 0 .889.111.637.394 1.221.862 1.778.13.155.237.291.237.302 0 .091-.793.341-1.082.341-.481 0-.896.282-1.017.69-.076.257-.076.363 0 .62a.887.887 0 0 0 .243.387c.248.249.503.323.985.287a4.618 4.618 0 0 0 2.394-.925l.222-.167.387.171c.746.331 1.574.577 2.488.739a8.7 8.7 0 0 1 .49.095c.006.006-.269.641-.611 1.411-.423.953-.629 1.466-.645 1.603-.063.529.339 1.009.9 1.076a.984.984 0 0 0 .937-.48c.053-.092.228-.469.39-.837l.295-.67h4.928l.295.67c.362.823.447.975.624 1.109.692.528 1.704-.021 1.603-.87-.017-.148-.569-1.429-2.051-4.766-1.115-2.51-2.071-4.629-2.125-4.71-.209-.317-.675-.496-1.04-.399-.242.064-.476.225-.589.405-.049.078-.526 1.127-1.061 2.331-.951 2.141-.975 2.19-1.085 2.19-.212 0-1.015-.125-1.43-.223-.496-.117-1.285-.374-1.285-.419 0-.017.1-.205.223-.418.747-1.294 1.161-2.692 1.402-4.73l.02-.17h.57c.716 0 .909-.05 1.162-.303.183-.183.303-.46.303-.697 0-.237-.12-.514-.303-.697-.251-.251-.448-.303-1.144-.303H11v-.553c0-.696-.052-.893-.303-1.144-.279-.279-.63-.361-1.024-.24m6.105 10.147c.413.929.76 1.713.771 1.74.015.039-.31.05-1.549.05-1.239 0-1.564-.011-1.549-.05.132-.337 1.529-3.43 1.549-3.43.015 0 .365.76.778 1.69" fill-rule="evenodd" fill="#000"/></svg>