<svg width="24" height="24" fill="none" xmlns="http://www.w3.org/2000/svg"><path d="M9.53 2.061c-.352.076-.628.236-.931.538-.531.532-.597.787-.598 2.311L8 6H5.947c-2.352 0-2.339-.002-2.644.303C3.12 6.486 3 6.763 3 7c0 .509.483 1 .984 1 .079 0 .093.026.114.21.013.115.22 2.595.46 5.51.24 2.915.454 5.453.476 5.64.086.729.315 1.19.866 1.74.519.519.956.749 1.633.859.335.055 8.599.055 8.934 0 .677-.11 1.114-.34 1.633-.859.551-.55.78-1.011.866-1.74.022-.187.236-2.725.476-5.64.24-2.915.447-5.395.46-5.51.021-.184.035-.21.114-.21.501 0 .984-.491.984-1 0-.237-.12-.514-.303-.697-.305-.305-.292-.303-2.644-.303H16l-.001-1.09c-.001-1.524-.067-1.779-.598-2.311-.309-.308-.579-.462-.95-.54-.383-.081-4.546-.08-4.921.002M14 5v1h-4V4h4v1m3.898 3.25c-.014.137-.227 2.682-.475 5.655l-.45 5.405-.107.184c-.122.208-.316.37-.536.449-.222.079-8.438.079-8.66 0a1.037 1.037 0 0 1-.536-.449l-.107-.184-.45-5.405c-.248-2.973-.461-5.518-.475-5.655L6.078 8h11.844l-.024.25m-8.225 1.813c-.261.08-.533.358-.612.627-.091.307-.091 6.313 0 6.62.112.378.537.69.939.69.237 0 .514-.12.697-.303.315-.315.303-.172.303-3.697s.012-3.382-.303-3.697c-.279-.279-.63-.361-1.024-.24m4 0c-.261.08-.533.358-.612.627-.091.307-.091 6.313 0 6.62.112.378.537.69.939.69.237 0 .514-.12.697-.303.315-.315.303-.172.303-3.697s.012-3.382-.303-3.697c-.279-.279-.63-.361-1.024-.24" fill-rule="evenodd" fill="#000"/></svg>