<svg width="24" height="24" fill="none" xmlns="http://www.w3.org/2000/svg"><path d="M15.378 3.879c-1.976.219-3.521 1.848-3.645 3.844-.021.337.025.9.093 1.129.024.082-.044.079-.946-.037-1.973-.254-3.927-1.068-5.567-2.321-.441-.337-1.418-1.266-1.713-1.629a1.627 1.627 0 0 0-.202-.223c-.032-.003-.237.425-.324.678a4.36 4.36 0 0 0-.197 1.923c.058.406.279 1.089.451 1.395.275.49.754 1.04 1.189 1.365l.137.102-.317-.031a4.6 4.6 0 0 1-1.278-.352L2.8 9.605v.172c0 .532.267 1.42.589 1.957.223.371.709.903 1.081 1.182.326.244.762.464 1.196.604.184.059.345.117.357.13.012.012-.153.053-.366.092a3.632 3.632 0 0 1-.903.047 5.044 5.044 0 0 0-.514-.01c0 .007.056.145.124.307.308.73.958 1.482 1.637 1.892.535.323 1.344.582 1.821.582.128 0 .18.015.168.049-.026.08-.78.574-1.23.806-1.314.677-2.818 1-4.22.908a6.537 6.537 0 0 0-.492-.022c-.007.006.197.132.453.28a11.876 11.876 0 0 0 4.072 1.425c.742.115 2.233.144 3.035.059a11.78 11.78 0 0 0 6.067-2.495 13.922 13.922 0 0 0 1.765-1.77A11.642 11.642 0 0 0 20 8.495v-.564l.306-.253a9.294 9.294 0 0 0 1.553-1.669l.15-.211-.214.086a9.397 9.397 0 0 1-1.975.532l-.16.024.099-.07c.533-.379.764-.601 1.112-1.07.243-.328.644-1.141.538-1.093l-.529.262a8.929 8.929 0 0 1-1.729.633l-.309.072-.231-.219c-.835-.793-2.07-1.204-3.233-1.076" fill="#25324B" fill-rule="evenodd"/></svg>