<svg width="24" height="24" fill="none" xmlns="http://www.w3.org/2000/svg"><path d="M4.673 5.063c-.261.08-.533.358-.612.627-.077.258-.077.409 0 .635.308.904 1.608.889 1.88-.022.074-.249.074-.358-.002-.613a1.004 1.004 0 0 0-.629-.629.936.936 0 0 0-.637.002m4 0C8.312 5.174 8 5.609 8 6c0 .402.312.827.69.939.179.053.908.061 5.81.061 4.902 0 5.631-.008 5.81-.061.378-.112.69-.537.69-.939 0-.402-.312-.827-.69-.939-.3-.089-11.347-.087-11.637.002m-4 6c-.261.08-.533.358-.612.627-.077.258-.077.409 0 .635.308.903 1.609.888 1.88-.022.074-.249.074-.358-.002-.613a1.004 1.004 0 0 0-.629-.629.936.936 0 0 0-.637.002m4 0C8.312 11.174 8 11.609 8 12c0 .402.312.827.69.939.179.053.908.061 5.81.061 4.902 0 5.631-.008 5.81-.061.378-.112.69-.537.69-.939 0-.402-.312-.827-.69-.939-.3-.089-11.347-.087-11.637.002m-4 6c-.261.08-.533.358-.612.627-.077.258-.077.409 0 .635.308.903 1.609.888 1.88-.022.074-.249.074-.358-.002-.613a1.004 1.004 0 0 0-.629-.629.936.936 0 0 0-.637.002m4 0C8.312 17.174 8 17.609 8 18c0 .402.312.827.69.939.179.053.908.061 5.81.061 4.902 0 5.631-.008 5.81-.061.378-.112.69-.537.69-.939 0-.402-.312-.827-.69-.939-.3-.089-11.347-.087-11.637.002" fill-rule="evenodd" fill="#000"/></svg>