<svg width="24" height="24" fill="none" xmlns="http://www.w3.org/2000/svg"><path d="M11.363 2.048c-.415.046-1.153.266-1.536.457-1.904.951-3.009 2.93-2.79 4.995a5.066 5.066 0 0 0 1.37 2.962c.698.728 1.578 1.206 2.654 1.441.44.096 1.438.096 1.878 0 1.367-.299 2.481-1.033 3.188-2.103.601-.909.845-1.72.845-2.8 0-.88-.158-1.554-.535-2.275-.657-1.257-1.737-2.142-3.077-2.521a4.955 4.955 0 0 0-1.997-.156M12.86 4.12a3.09 3.09 0 0 1 2.026 2.04c.135.434.135 1.246 0 1.68a3.086 3.086 0 0 1-2.046 2.046c-.436.135-1.248.135-1.68 0A3.086 3.086 0 0 1 9.114 7.84c-.136-.434-.136-1.246 0-1.68a3.088 3.088 0 0 1 2.329-2.119c.308-.065 1.101-.021 1.417.079m-1.44 8.903c-.066.009-.291.037-.5.061-1.089.125-2.368.607-3.35 1.264-2.122 1.418-3.399 3.67-3.554 6.267-.035.587.027.822.287 1.081.328.329-.295.304 7.697.304s7.369.025 7.697-.304c.324-.324.372-.782.201-1.922-.511-3.409-3.248-6.145-6.678-6.675-.39-.06-1.561-.11-1.8-.076m1.4 2.037a5.97 5.97 0 0 1 3.415 1.705 6.03 6.03 0 0 1 1.603 2.862c.045.179.082.337.082.35 0 .012-2.664.023-5.92.023s-5.92-.01-5.92-.023c0-.082.218-.85.313-1.101.16-.424.484-1.028.754-1.403a7.365 7.365 0 0 1 1.326-1.326c1.253-.901 2.864-1.305 4.347-1.087" fill-rule="evenodd" fill="#000"/></svg>