<svg width="24" height="24" fill="none" xmlns="http://www.w3.org/2000/svg"><path d="M8.363 2.048c-.415.046-1.153.266-1.536.457-1.904.951-3.009 2.93-2.79 4.995a5.066 5.066 0 0 0 1.37 2.962c.698.728 1.578 1.206 2.654 1.441.44.096 1.438.096 1.878 0 1.367-.299 2.481-1.033 3.188-2.103.601-.909.845-1.72.845-2.8 0-.88-.158-1.554-.535-2.275-.657-1.257-1.737-2.142-3.077-2.521a4.955 4.955 0 0 0-1.997-.156M9.86 4.12a3.09 3.09 0 0 1 2.026 2.04c.135.434.135 1.246 0 1.68A3.086 3.086 0 0 1 9.84 9.886c-.436.135-1.248.135-1.68 0A3.086 3.086 0 0 1 6.114 7.84c-.136-.434-.136-1.246 0-1.68a3.088 3.088 0 0 1 2.329-2.119c.308-.065 1.101-.021 1.417.079m7.813 3.943a.93.93 0 0 0-.369.24c-.282.282-.304.399-.304 1.644V11h-1.053c-1.244 0-1.363.022-1.644.303-.183.183-.303.46-.303.697 0 .237.12.514.303.697.281.281.4.303 1.644.303H17v1.053c0 1.244.022 1.363.303 1.644.183.183.46.303.697.303.237 0 .514-.12.697-.303.281-.281.303-.4.303-1.644V13h1.053c1.244 0 1.363-.022 1.644-.303.183-.183.303-.46.303-.697 0-.237-.12-.514-.303-.697-.281-.281-.4-.303-1.644-.303H19V9.947c0-1.244-.022-1.363-.303-1.644-.279-.279-.63-.361-1.024-.24m-9.325 4.979c-2.213.197-4.228 1.481-5.376 3.426-.688 1.167-.971 2.335-.972 4.015 0 .772.046.957.303 1.214.326.326-.177.303 6.697.303s6.371.023 6.697-.303c.257-.257.303-.442.303-1.214a15.73 15.73 0 0 0-.041-1.077 6.97 6.97 0 0 0-6.365-6.365 5.704 5.704 0 0 0-1.246.001M10 15.101a5.48 5.48 0 0 1 1.815.767c.366.242 1.075.951 1.317 1.317.498.756.795 1.618.856 2.485l.024.33H3.988l.024-.33a5.216 5.216 0 0 1 .856-2.485c.24-.366.951-1.077 1.317-1.317.691-.454 1.229-.655 2.255-.844.211-.039 1.27.013 1.56.077" fill-rule="evenodd" fill="#000"/></svg>