<svg width="24" height="24" fill="none" xmlns="http://www.w3.org/2000/svg"><path d="M6.96 2.062a2.516 2.516 0 0 0-1.675 1.3c-.39.792-.368 1.501.06 1.877.2.175.37.241.624.241.299-.001.471-.058.665-.224.215-.185.316-.384.364-.721.031-.219.061-.292.161-.392.107-.107.151-.123.341-.123.193 0 .233.015.349.131l.131.131L8 8.271c.022 4.47-.002 4.132.321 4.446.169.163.456.283.679.283.237 0 .514-.12.697-.303.251-.251.303-.448.303-1.144V11h4v.553c0 .696.052.893.303 1.144.183.183.46.303.697.303.223 0 .51-.12.679-.283.323-.314.299.024.321-4.446l.02-3.989.131-.131c.116-.116.156-.131.349-.131.19 0 .234.016.341.123.1.1.13.173.161.392.046.327.145.531.343.704.2.175.37.241.624.241.299-.001.471-.058.665-.224.33-.283.43-.686.31-1.256-.201-.96-.977-1.742-1.924-1.94a2.506 2.506 0 0 0-2.903 1.699l-.068.221H9.951l-.068-.221a2.524 2.524 0 0 0-1.25-1.477 2.503 2.503 0 0 0-1.673-.22M14 7.5V9h-4V6h4v1.5m-6.647 6.56c-.834.158-1.473.541-2.071 1.24-.489.572-.697.681-1.302.679-.358-.001-.424-.013-.626-.115-.144-.072-.337-.228-.529-.427-.25-.259-.34-.324-.511-.375-.265-.079-.412-.078-.648.002-.532.182-.807.841-.564 1.354.105.221.483.648.759.857.338.256.836.501 1.239.61.259.07.43.087.9.087.68 0 1.018-.074 1.549-.336.455-.226.79-.491 1.136-.9.366-.432.516-.554.805-.656.45-.158 1.056-.074 1.389.194.077.062.274.271.436.462.346.409.681.674 1.136.9.531.262.869.336 1.549.336.68 0 1.018-.074 1.549-.336.455-.226.79-.491 1.136-.9.366-.432.516-.554.805-.656.45-.158 1.056-.074 1.389.194.077.062.274.271.436.462.346.409.681.674 1.136.9.531.262.869.336 1.549.336.47 0 .641-.017.9-.087a3.989 3.989 0 0 0 1.239-.61c.276-.209.654-.636.759-.857a.994.994 0 0 0-.169-1.084c-.288-.297-.634-.391-1.023-.277-.195.056-.269.11-.53.38-.192.198-.387.356-.53.428-.205.103-.264.114-.646.114-.383.001-.44-.009-.64-.112-.268-.138-.335-.197-.687-.617a3.496 3.496 0 0 0-1.775-1.136c-.258-.07-.427-.087-.898-.087-.673 0-1.004.071-1.538.33-.452.219-.795.493-1.177.94-.492.575-.699.683-1.305.682-.359 0-.423-.012-.62-.113-.268-.137-.335-.196-.687-.616a3.446 3.446 0 0 0-1.775-1.132c-.42-.11-1.132-.136-1.545-.058m0 4c-.834.158-1.473.541-2.071 1.24-.489.572-.697.681-1.302.679-.358-.001-.424-.013-.626-.115-.144-.072-.337-.228-.529-.427-.25-.259-.34-.324-.511-.375-.265-.079-.412-.078-.648.002-.532.182-.807.841-.564 1.354.105.221.483.648.759.857.338.256.836.501 1.239.61.458.124 1.342.124 1.8 0a3.512 3.512 0 0 0 1.785-1.149c.366-.432.516-.554.805-.656.45-.158 1.056-.074 1.389.194.077.062.274.271.436.462.484.572 1.087.96 1.785 1.149.458.124 1.342.124 1.8 0a3.512 3.512 0 0 0 1.785-1.149c.366-.432.516-.554.805-.656.45-.158 1.056-.074 1.389.194.077.062.274.271.436.462.346.409.681.674 1.136.9.531.262.869.336 1.549.336.47 0 .641-.017.9-.087a3.989 3.989 0 0 0 1.239-.61c.276-.209.654-.636.759-.857a.994.994 0 0 0-.169-1.084c-.288-.297-.634-.391-1.023-.277-.195.056-.269.11-.53.38-.192.198-.387.356-.53.428-.205.103-.264.114-.646.114-.383.001-.44-.009-.64-.112-.268-.138-.335-.197-.687-.617a3.496 3.496 0 0 0-1.775-1.136c-.258-.07-.427-.087-.898-.087-.673 0-1.004.071-1.538.33-.452.219-.795.493-1.177.94-.492.575-.699.683-1.305.682-.359 0-.423-.012-.62-.113-.268-.137-.335-.196-.687-.616a3.446 3.446 0 0 0-1.775-1.132c-.42-.11-1.132-.136-1.545-.058" fill-rule="evenodd" fill="#000"/></svg>