<svg width="24" height="24" fill="none" xmlns="http://www.w3.org/2000/svg"><path d="M4.506 5.042c-.646.108-1.099.35-1.606.858-.519.519-.749.956-.859 1.633-.055.335-.055 8.599 0 8.934.11.677.34 1.114.859 1.633.519.519.956.749 1.633.859.335.055 8.599.055 8.934 0a2.989 2.989 0 0 0 1.013-.348c.337-.195.936-.794 1.131-1.131.251-.432.388-.98.389-1.55 0-.159.008-.29.018-.29.011 0 .756.367 1.657.816 1.11.554 1.713.832 1.871.865.304.063.899.031 1.134-.062.472-.187.896-.57 1.116-1.008.202-.404.203-.412.203-4.251 0-3.839-.001-3.847-.203-4.251a2.113 2.113 0 0 0-1.185-1.025c-.282-.095-.756-.112-1.095-.04-.121.027-.885.383-1.843.86-.9.449-1.644.816-1.655.816-.01 0-.018-.131-.018-.29-.001-.57-.138-1.118-.389-1.55-.195-.337-.794-.936-1.131-1.131a2.989 2.989 0 0 0-1.013-.348c-.298-.049-8.671-.048-8.961.001m8.824 2.015c.221.079.414.241.539.454l.111.189v8.6l-.111.189a1.038 1.038 0 0 1-.539.454c-.222.079-8.438.079-8.66 0a1.038 1.038 0 0 1-.539-.454L4.02 16.3V7.7l.111-.189c.125-.213.318-.375.539-.454.222-.079 8.438-.079 8.66 0M20 12c0 1.848-.009 3.36-.02 3.36-.011 0-.911-.445-2-.99L16 13.38v-2.76l1.97-.988c1.083-.543 1.983-.989 2-.99.017-.001.03 1.51.03 3.358" fill-rule="evenodd" fill="#000"/></svg>