<svg xmlns="http://www.w3.org/2000/svg" width="80" height="80"><path d="M37.333.084C25.589.96 15.119 6.637 8.041 15.966 3.995 21.299 1.478 27.386.364 34.532c-.407 2.613-.407 8.323 0 10.936 1.71 10.972 7.014 19.975 15.612 26.499 5.31 4.029 11.431 6.559 18.556 7.669 2.613.407 8.323.407 10.936 0 9.721-1.515 17.984-5.897 24.184-12.826 5.497-6.143 8.673-12.933 9.984-21.342.407-2.613.407-8.323 0-10.936-1.11-7.125-3.64-13.246-7.669-18.556C65.352 7.259 55.899 1.774 45 .331c-1.561-.207-6.201-.356-7.667-.247m-1.605 19.524c.465.248 1.076.725 1.394 1.089l.567.648.589-.136c.758-.175 2.686-.175 3.444 0l.589.136.567-.648c.322-.368.93-.842 1.409-1.097.698-.372.99-.45 1.711-.458l.869-.009v.398c0 .38-.033.403-.718.502-.986.142-1.742.503-2.337 1.115-.445.458-.476.532-.276.651.992.588 2.153 1.521 2.608 2.097 1.555 1.967 2.138 4.296 1.664 6.639-.202.998-.813 2.517-1.15 2.858-.232.236-.126.406.502.803.345.218 1.006.717 1.469 1.11.463.393.893.695.955.671.063-.024 1.321-.882 2.798-1.907l2.685-1.864v-6.188l-.383-.272c-1.224-.872-.637-2.679.87-2.679.485 0 .674.074.99.389.319.32.389.502.389 1.014 0 .535-.066.69-.466 1.09l-.467.467v6.738l-2.929 2.038c-1.756 1.222-2.893 2.096-2.84 2.184.049.08.28.416.513.746.531.749 1.304 2.284 1.529 3.034.093.311.175.568.181.569.007.002 1.651.174 3.654.382 2.003.208 3.689.432 3.745.497.057.065.509 1.138 1.005 2.385.495 1.247.998 2.327 1.117 2.4.12.073.384.305.588.514.77.791.306 2.228-.786 2.432-1.413.265-2.315-1.431-1.315-2.474l.338-.353-.798-1.98c-.438-1.088-.825-2.007-.86-2.041-.051-.051-5.651-.683-6.157-.695-.105-.002-.129.537-.082 1.85.051 1.417.012 2.158-.166 3.146-.128.71-.181 1.337-.118 1.392.063.054.849.63 1.748 1.279L56 51.251v6.722l.467.467c.394.394.466.559.466 1.062 0 .735-.36 1.238-1.017 1.419-1.609.444-2.596-1.695-1.232-2.667l.383-.272V51.797l-1.349-.975c-.742-.537-1.417-.997-1.5-1.023-.083-.025-.41.481-.726 1.125-1.42 2.899-4.163 5.299-7.262 6.356-6.13 2.091-12.931-.66-15.724-6.36-.315-.642-.61-1.172-.657-1.177-.046-.005-.706.455-1.466 1.024L25 51.8l-.036 3.089-.036 3.089.385.274c1.367.974.381 3.114-1.229 2.669-.657-.181-1.017-.684-1.017-1.419 0-.503.072-.668.466-1.062l.467-.467v-6.722l1.633-1.181a98.669 98.669 0 0 0 1.75-1.281c.065-.057.014-.618-.117-1.278-.182-.919-.22-1.607-.17-3.144.044-1.376.019-1.966-.083-1.964-.506.012-6.104.644-6.155.695-.035.034-.422.953-.86 2.041l-.798 1.98.338.353c.704.734.504 1.922-.396 2.351-.995.474-2.075-.227-2.075-1.347 0-.581.235-.955.887-1.409.184-.129.609-1.011 1.188-2.467.496-1.247.947-2.319 1.002-2.383.056-.064 1.741-.287 3.745-.497l3.657-.383a9.43 9.43 0 0 0 .181-.57c.225-.75.998-2.285 1.529-3.034.233-.33.464-.666.513-.746.053-.088-1.084-.962-2.84-2.184L24 32.765v-6.738l-.467-.467c-.4-.4-.466-.555-.466-1.09 0-.512.07-.694.389-1.014.316-.315.505-.389.99-.389 1.507 0 2.094 1.807.87 2.679l-.383.272v6.188l2.685 1.864c1.477 1.025 2.735 1.883 2.798 1.907.062.024.492-.278.955-.671a16.404 16.404 0 0 1 1.469-1.11c.628-.397.734-.567.502-.803-.322-.327-.939-1.832-1.13-2.756-.379-1.834-.207-3.336.57-4.97.679-1.429 1.616-2.518 2.864-3.329l1.019-.662-.495-.507c-.618-.633-1.36-.998-2.303-1.134-.75-.108-.931-.302-.742-.794.141-.368 1.614-.16 2.603.367m2.727 2.59c-2.34.509-4.396 2.4-5.139 4.726-.379 1.185-.379 2.946 0 4.143.367 1.159 1.02 2.187 1.323 2.084L36 32.685c1.46-.499 3.329-.743 4.836-.629 1.254.094 3.405.586 4.075.932.588.305.652.28 1.097-.421 1.328-2.094 1.28-5.152-.115-7.31a7.028 7.028 0 0 0-7.438-3.059M24.16 24.16c-.233.233-.196.612.073.751.491.252 1.002-.324.624-.702-.25-.25-.48-.266-.697-.049m30.983.049c-.378.378.133.954.624.702.269-.139.306-.518.073-.751-.217-.217-.447-.201-.697.049M38.932 41.567c-.002 9.116 0 9.08-.698 10.588-.485 1.047-1.441 2.267-2.349 3-.44.355-.804.687-.809.739-.018.18 2.5.896 3.656 1.039 1.517.189 3.254-.001 4.935-.54.696-.223 1.262-.448 1.256-.499-.005-.052-.32-.337-.7-.635-.881-.69-1.86-1.902-2.368-2.932-.794-1.608-.785-1.484-.787-10.76l-.001-8.5h-2.134l-.001 8.5m-1.763-8.223c-1.932.456-4.365 1.863-5.778 3.343-1.484 1.554-2.275 2.937-2.951 5.161-.306 1.007-.351 1.395-.359 3.085-.009 2.062.113 2.753.809 4.587.704 1.856 2.581 4.178 4.374 5.411.579.399.657.419.983.254.701-.357 2.503-2.29 2.937-3.151.822-1.633.816-1.553.816-10.595 0-6.51-.035-8.236-.167-8.226-.091.008-.39.067-.664.131M42 41.433c0 9.049-.006 8.968.816 10.601.434.861 2.236 2.794 2.937 3.151.326.165.404.145.983-.254 1.109-.762 2.455-2.142 3.251-3.333 1.216-1.818 1.838-3.691 1.969-5.931.189-3.234-1.002-6.493-3.239-8.865-.846-.896-2.291-1.986-3.317-2.501-.709-.357-2.277-.909-2.9-1.022l-.5-.091v8.245M18.16 48.16c-.233.233-.196.612.073.751.491.252 1.002-.324.624-.702-.25-.25-.48-.266-.697-.049m42.983.049c-.378.378.133.954.624.702.269-.139.306-.518.073-.751-.217-.217-.447-.201-.697.049M24.045 59.276c-.125.324.13.657.503.657.265 0 .319-.067.319-.4 0-.337-.058-.406-.368-.442-.25-.029-.395.03-.454.185m31.032.039c-.171.319.109.733.451.666.316-.062.537-.419.431-.696-.115-.299-.718-.278-.882.03" fill-rule="evenodd"/></svg>