<svg xmlns="http://www.w3.org/2000/svg" width="80" height="80"><path d="M36.675.151C22.709 1.297 10.225 9.84 4.066 22.467 2.125 26.445.909 30.543.248 35.333c-.233 1.685-.233 7.649 0 9.334.661 4.788 1.876 8.884 3.817 12.866 5.486 11.255 16.059 19.364 28.321 21.721 3.01.579 4.075.673 7.614.673 3.539 0 4.604-.094 7.614-.673 12.262-2.357 22.835-10.466 28.321-21.721 1.941-3.982 3.156-8.078 3.817-12.866.233-1.685.233-7.649 0-9.334-.661-4.788-1.876-8.884-3.817-12.866C68.727 7.68 53.109-1.197 36.675.151m7.078 1.052c18.63 1.845 33.199 16.414 35.044 35.044.176 1.777.175 5.733-.001 7.506-.638 6.411-2.807 12.538-6.293 17.774-2.624 3.94-6.375 7.785-10.236 10.492-5.293 3.71-11.648 6.056-18.4 6.79-1.8.196-5.934.196-7.734 0-8.931-.972-16.836-4.629-23.154-10.715-6.731-6.483-10.85-14.997-11.776-24.341-.175-1.775-.175-5.731 0-7.506C3.04 17.701 17.56 3.109 36.067 1.212c1.568-.161 6.095-.166 7.686-.009M33.092 19.286c-.196.366.043.714.49.714.798 0 1.735.402 2.419 1.037l.678.63-1.1.733c-1.764 1.175-2.905 2.819-3.39 4.88-.425 1.806-.061 4.149.885 5.696.216.353.393.683.392.733 0 .05-.282.269-.626.487-.345.218-1.006.717-1.469 1.11-.463.393-.893.695-.956.671-.062-.024-1.288-.854-2.724-1.844l-2.611-1.8-.007-3.218-.006-3.218.313-.205c1.162-.762.52-2.625-.906-2.625-1.447 0-1.985 1.716-.823 2.63l.349.275V32.769l2.928 2.03 2.928 2.031-.51.752c-.626.923-1.392 2.428-1.616 3.176-.197.659.13.58-4.063.983-1.614.156-3.075.324-3.247.375-.259.077-.483.508-1.275 2.452-.837 2.052-1.021 2.398-1.42 2.667-.608.409-.863 1.137-.609 1.739.243.573.623.889 1.18.979 1.373.223 2.218-1.463 1.243-2.481l-.338-.352.813-2.023c.782-1.946.829-2.026 1.233-2.09.866-.138 5.853-.618 5.903-.568.029.029-.008.636-.082 1.351-.137 1.314-.021 3.089.264 4.076.074.256.135.557.135.668 0 .111-.78.766-1.734 1.456L24 51.244v6.784l-.349.275c-.51.401-.735 1.022-.578 1.592.313 1.134 1.596 1.447 2.492.608.602-.564.502-1.745-.185-2.195l-.313-.205v-6.37l1.233-.91c.678-.5 1.305-.951 1.392-1.002.105-.062.366.306.764 1.076 2.991 5.788 9.636 8.477 15.774 6.383 3.094-1.055 5.766-3.387 7.314-6.382.428-.829.654-1.14.776-1.067.094.056.718.492 1.387.969l1.215.867.006 3.218.005 3.218-.313.205c-.687.45-.787 1.631-.185 2.195.896.839 2.179.526 2.492-.608.157-.57-.068-1.191-.578-1.592L56 58.028v-6.784l-1.733-1.254c-.954-.69-1.734-1.345-1.734-1.456 0-.111.061-.412.135-.668.285-.987.401-2.762.264-4.076-.074-.715-.111-1.322-.082-1.351.05-.05 5.037.43 5.903.568.404.064.451.144 1.233 2.09l.813 2.023-.338.352c-.975 1.018-.13 2.704 1.243 2.481a1.464 1.464 0 0 0 .6-2.68c-.43-.292-.591-.593-1.449-2.697-.793-1.945-1.021-2.385-1.277-2.46-.171-.051-1.631-.219-3.245-.375-4.193-.403-3.866-.324-4.063-.983-.224-.747-.99-2.253-1.614-3.173l-.508-.748 2.926-2.036L56 32.765V25.972l.349-.275c1.162-.914.624-2.63-.823-2.63-1.426 0-2.068 1.863-.906 2.625l.313.205-.006 3.218-.007 3.218-2.611 1.8c-1.436.99-2.662 1.82-2.724 1.844-.063.024-.493-.278-.956-.671a16.404 16.404 0 0 0-1.469-1.11c-.344-.218-.626-.437-.626-.487-.001-.05.176-.38.392-.733.946-1.547 1.31-3.89.885-5.696-.55-2.341-1.904-4.076-4.275-5.481-.2-.119-.169-.193.276-.651.596-.614 1.403-.997 2.327-1.107.759-.09 1.034-.377.743-.776-.146-.2-.306-.227-.984-.166-1.056.096-2.267.736-3.02 1.598l-.567.648-.589-.136c-.758-.175-2.686-.175-3.444 0l-.589.136-.567-.648c-.771-.881-1.975-1.511-3.058-1.597-.726-.059-.854-.034-.972.186m8.391 2.906c2.571.545 4.806 2.746 5.325 5.245.226 1.089.096 3.122-.255 3.995-.443 1.1-.935 1.807-1.196 1.717l-1.385-.473c-1.652-.565-3.584-.769-5.346-.564-1.297.151-2.887.56-3.742.965-.362.171-.401.159-.699-.215-.612-.766-1.015-2.027-1.086-3.396-.117-2.287.447-3.827 1.96-5.348 1.747-1.756 4.016-2.437 6.424-1.926m-16.761 1.889c.296.113.264.681-.046.847-.453.243-.884-.4-.516-.768.182-.182.265-.193.562-.079m31.118.079c.217.217.201.447-.049.697-.283.282-.724.048-.724-.384 0-.434.464-.622.773-.313M40.938 41.1c.004 6.209.046 8.267.188 9.061.333 1.866 1.568 3.9 3.097 5.098.38.298.695.583.7.635.006.051-.56.276-1.256.499-1.681.539-3.418.729-4.935.54-1.156-.143-3.674-.859-3.656-1.039.005-.052.369-.384.809-.739.908-.733 1.864-1.953 2.349-3 .767-1.656.747-1.396.798-10.588l.047-8.5h1.854l.005 8.033m-2.94.267c-.002 9.002-.012 9.124-.83 10.687-.441.843-2.264 2.796-2.921 3.131-.326.165-.404.145-.983-.254-5.2-3.577-6.763-10.625-3.558-16.042 1.279-2.162 3.581-4.122 5.883-5.01.998-.385 1.833-.633 2.244-.666.132-.01.167 1.701.165 8.154m5.935-7.666a11.953 11.953 0 0 1 4.84 3.168 11.885 11.885 0 0 1-.24 16.473c-.623.631-1.424 1.344-1.78 1.585-.595.403-.674.423-1 .258-.657-.335-2.48-2.288-2.921-3.131-.818-1.563-.828-1.685-.83-10.693L42 33.188l.5.091c.275.05.92.24 1.433.422m-25.211 14.38c.296.113.264.681-.046.847-.453.243-.884-.4-.516-.768.182-.182.265-.193.562-.079m43.118.079c.217.217.201.447-.049.697-.283.282-.724.048-.724-.384 0-.434.464-.622.773-.313M24.867 59.533c0 .304-.067.41-.279.44-.362.052-.635-.283-.521-.641.067-.209.18-.27.444-.24.297.035.356.107.356.441m31.068-.193a.48.48 0 0 1-.522.633c-.286-.041-.425-.377-.295-.714.115-.299.716-.24.817.081" fill-rule="evenodd"/></svg>