<svg width="24" height="24" fill="none" xmlns="http://www.w3.org/2000/svg"><path d="M10.88 2.064c-1.24.157-2.206.443-3.304.978-2.75 1.341-4.76 3.952-5.372 6.978-.141.698-.181 1.138-.181 1.98 0 1.654.297 2.941 1.02 4.424a9.996 9.996 0 0 0 4.533 4.534c1.105.538 1.954.792 3.219.96 1.686.225 3.542-.041 5.151-.737a10.003 10.003 0 0 0 5.813-7.019c.163-.733.217-1.274.217-2.162 0-.888-.054-1.429-.217-2.162a10.015 10.015 0 0 0-7.779-7.634c-1.001-.201-2.193-.256-3.1-.14m1.493 2.766c.186.369.437.922.559 1.23.213.541.549 1.543.606 1.81l.028.13h-3.132l.028-.13c.057-.267.393-1.269.606-1.81.237-.602.874-1.9.932-1.9.019 0 .187.302.373.67m-2.951-.003c-.384.876-.75 1.95-.948 2.783L8.381 8H5.073l.12-.207c.212-.368.611-.876 1.023-1.304.703-.73 1.296-1.174 2.156-1.613.437-.223 1.188-.527 1.223-.494.008.008-.07.208-.173.445m6.136.012a7.237 7.237 0 0 1 1.955 1.38c.575.553 1.122 1.231 1.363 1.691l.047.09h-3.304l-.093-.39a17.804 17.804 0 0 0-.945-2.775 5.426 5.426 0 0 1-.181-.443c0-.051.716.225 1.158.447m-7.532 5.279c-.013.065-.045.515-.072 1a13.312 13.312 0 0 0 0 1.764c.027.485.059.935.072 1L8.05 14H4.246l-.06-.27c-.132-.595-.164-.93-.164-1.73 0-.8.032-1.135.164-1.73l.06-.27H8.05l-.024.118m5.952.072c.129.981.129 2.639 0 3.62l-.026.19h-3.904l-.026-.19c-.129-.981-.129-2.639 0-3.62l.026-.19h3.904l.026.19m5.836.08c.132.595.164.93.164 1.73 0 .8-.032 1.135-.164 1.73l-.06.27H15.95l.024-.118c.013-.065.045-.515.072-1 .039-.696.039-1.068 0-1.764a18.648 18.648 0 0 0-.072-1L15.95 10h3.804l.06.27m-11.34 6.12c.198.831.57 1.924.945 2.775.099.227.181.426.181.443 0 .051-.716-.225-1.158-.447a7.237 7.237 0 0 1-1.955-1.38c-.575-.553-1.122-1.231-1.363-1.691L5.077 16h3.304l.093.39m5.064-.26c-.057.267-.393 1.269-.606 1.81-.237.602-.874 1.9-.932 1.9-.058 0-.695-1.298-.932-1.9-.213-.541-.549-1.543-.606-1.81l-.028-.13h3.132l-.028.13m5.338-.04c-.241.46-.788 1.138-1.363 1.691a7.237 7.237 0 0 1-1.955 1.38c-.442.222-1.158.498-1.158.447 0-.017.082-.216.181-.443.375-.851.747-1.944.945-2.775l.093-.39h3.304l-.047.09" fill-rule="evenodd" fill="#000"/></svg>