<svg xmlns="http://www.w3.org/2000/svg" viewBox="0 0 16 16"><path d="M4.333 3.03c-.728.015-1.889.064-2.146.092-.687.074-1.072.278-1.378.731-.605.895-.841 2.392-.801 5.08.022 1.429.105 2.27.299 3.029.274 1.07.731 1.66 1.426 1.838.584.151 1.757.185 6.28.185 5.277 0 6.033-.036 6.598-.312.595-.29 1.035-1.16 1.226-2.42.122-.804.147-1.267.148-2.72.001-1.366-.016-1.763-.106-2.493-.181-1.456-.623-2.399-1.275-2.716-.539-.262-1.048-.286-6.071-.295-2.09-.004-3.98-.003-4.2.001m4.175 3.976c1.888 1.133 2.47 1.494 2.445 1.517-.024.022-4.793 2.886-4.933 2.963-.011.006-.02-1.334-.02-2.978 0-1.643.007-2.988.016-2.988.008 0 1.13.669 2.492 1.486" fill-rule="evenodd"/></svg>